<?xml version="1.0" encoding="utf-8"?>
<!DOCTYPE svg PUBLIC "-//W3C//DTD SVG 1.1//EN" "http://www.w3.org/Graphics/SVG/1.1/DTD/svg11.dtd">
<svg version="1.1" id="logo" xmlns="http://www.w3.org/2000/svg" xmlns:xlink="http://www.w3.org/1999/xlink" x="0px" y="0px"
	 width="85px" height="85px" viewBox="0 0 85 85" enable-background="new 0 0 85 85" xml:space="preserve">
<circle fill="#FFFFFF" cx="42.5" cy="42.5" r="42.5"/>
<path fill="#00338D" d="M37.005,49.934c1.658,0.517,3.429,0.754,5.147,0.754c1.975,0,3.78-0.252,5.378-0.754H37.005L37.005,49.934z
	 M48.65,49.519c0.498-0.207,0.983-0.436,1.435-0.694H34.374c0.464,0.259,0.958,0.491,1.458,0.694H48.65L48.65,49.519z
	 M53.968,44.998c0.14-0.226,0.278-0.473,0.396-0.723h-4.268c-0.104,0.254-0.22,0.499-0.352,0.723H53.968L53.968,44.998z
	 M48.917,46.135c0.198-0.224,0.384-0.455,0.554-0.704h4.23c-0.157,0.245-0.324,0.473-0.503,0.704H48.917L48.917,46.135z
	 M47.584,47.268c0.316-0.214,0.62-0.459,0.906-0.713h4.353c-0.211,0.248-0.436,0.485-0.674,0.713H47.584L47.584,47.268z
	 M45.042,48.394c0.629-0.176,1.239-0.407,1.811-0.705h4.84c-0.288,0.255-0.597,0.485-0.919,0.705H45.042L45.042,48.394z
	 M39.383,48.394c-0.623-0.176-1.213-0.411-1.771-0.705h-4.896c0.311,0.257,0.628,0.485,0.957,0.705H39.383L39.383,48.394z
	 M36.864,47.268c-0.321-0.218-0.637-0.463-0.921-0.713h-4.409c0.212,0.243,0.438,0.493,0.676,0.713H36.864L36.864,47.268z
	 M35.503,46.135c-0.214-0.224-0.409-0.455-0.589-0.704h-4.256c0.166,0.245,0.333,0.477,0.513,0.704H35.503L35.503,46.135z
	 M34.64,44.998c-0.139-0.226-0.268-0.469-0.375-0.723h-4.26c0.119,0.25,0.248,0.497,0.385,0.723H34.64L34.64,44.998z M30.854,31.93
	c-0.219,0.238-0.434,0.472-0.635,0.72h4.411c0.192-0.247,0.392-0.492,0.604-0.72H30.854L30.854,31.93z M35.649,31.501
	c0.258-0.256,0.525-0.491,0.81-0.705h-4.386c-0.285,0.229-0.547,0.461-0.805,0.705H35.649L35.649,31.501z M37.051,30.373
	c0.397-0.261,0.825-0.502,1.262-0.71h-4.637c-0.371,0.233-0.735,0.461-1.076,0.71H37.051L37.051,30.373z M49.079,31.93
	c0.214,0.226,0.417,0.472,0.605,0.72h4.401c-0.194-0.238-0.409-0.492-0.623-0.72H49.079L49.079,31.93z M53.032,31.501
	c-0.247-0.239-0.508-0.489-0.777-0.705h-4.396c0.28,0.214,0.551,0.454,0.805,0.705H53.032L53.032,31.501z M51.687,30.373
	c-0.332-0.247-0.69-0.484-1.056-0.71h-4.643c0.44,0.211,0.866,0.448,1.274,0.71H51.687L51.687,30.373z M42.149,29.233
	c-0.538,0-1.077-0.264-1.077-0.616c0-0.735,0-3.905,0-4.639c0-0.258,0.531-0.542,1.069-0.542c0.53,0,1.062,0.293,1.062,0.542
	c0,0.634,0,3.871,0,4.639C43.203,28.964,42.677,29.226,42.149,29.233L42.149,29.233z M42.145,28.854
	c0.355,0,0.713-0.176,0.713-0.414c0-0.515,0-3.854,0-4.278c0-0.223-0.363-0.363-0.721-0.363c-0.36,0-0.724,0.139-0.724,0.363
	c0,0.491,0,3.791,0,4.278C41.413,28.679,41.779,28.857,42.145,28.854L42.145,28.854z M41.348,23.896l0.801,0.797v-0.271l0.739-0.74
	v0.542l-0.739,0.738l-0.801-0.795V23.896z M41.348,24.826l0.801,0.801v-0.272l0.739-0.743v0.541l-0.739,0.743l-0.801-0.8V24.826z
	 M41.348,25.759l0.801,0.801v-0.268l0.739-0.744v0.542l-0.739,0.742l-0.801-0.798V25.759z M41.348,26.693l0.801,0.805V27.23
	l0.739-0.743v0.533l-0.739,0.742l-0.801-0.798V26.693z M41.348,27.629l0.801,0.8V28.16l0.739-0.741v0.536L42.149,28.7l-0.801-0.801
	V27.629z M39.152,26.764c0.54,0.617,1.152,1.036,1.754,1.044c0.087,0.016,0.155,0.026,0.206,0.09l-0.011-0.531
	c-0.298,0.076-0.89-0.015-1.25-0.478c1.104-0.898,0.093-3.259-2.305-2.364c0.065,0.109,0.171,0.298,0.331,0.515
	C39.205,24.401,40.546,25.9,39.152,26.764L39.152,26.764z M38.068,25.309c0.722-0.483,2.166,0.337,0.963,1.25
	c-0.106-0.097-0.346-0.405-0.385-0.469c0.451-0.201,0.301-0.66-0.215-0.309C38.336,25.684,38.127,25.419,38.068,25.309
	L38.068,25.309z M37.314,24.602c-0.637,0.172-1.259,0.288-1.513,0.281c-0.366-0.003-0.54,0.52,0.159,0.655
	c0.744,0.15,1.315-0.184,1.729-0.367C37.567,24.993,37.379,24.732,37.314,24.602L37.314,24.602z M37.843,25.419
	c-0.368,0.158-1.095,0.393-1.357,0.372c-0.366-0.031-0.589,0.102-0.164,0.36c0.597,0.355,1.467,0.039,1.88-0.226
	C38.103,25.782,37.896,25.471,37.843,25.419L37.843,25.419z M38.394,26.188c-0.45,0.178-1.094,0.359-1.345,0.354
	c-0.374-0.019-0.331,0.232,0.057,0.384c0.385,0.159,1.25,0.026,1.692-0.234C38.696,26.56,38.46,26.292,38.394,26.188L38.394,26.188z
	 M38.936,26.869c-0.434,0.216-1.031,0.384-1.267,0.366c-0.265-0.019-0.315,0.215,0.11,0.427c0.445,0.21,1.174-0.123,1.532-0.394
	C39.226,27.173,39.006,26.954,38.936,26.869L38.936,26.869z M39.473,27.426c-0.395,0.252-0.741,0.372-0.971,0.485
	c-0.242,0.114-0.065,0.662,0.382,0.531c0.372-0.124,0.673-0.385,1.02-0.699C39.821,27.678,39.566,27.51,39.473,27.426L39.473,27.426
	z M40.132,27.87c-0.344,0.334-0.678,0.581-0.898,0.698c-0.293,0.135,0.022,0.496,0.482,0.395c0.408-0.092,0.604-0.684,0.988-0.883
	C40.611,28.032,40.241,27.935,40.132,27.87L40.132,27.87z M35.858,26.085c-0.445,0.09-1.357,0.08-1.533,0.005
	c-0.385-0.146-0.464,0.111-0.092,0.36c0.805,0.523,1.874,0.429,2.324,0.293c-0.009-0.054-0.014-0.161-0.005-0.22
	C36.224,26.461,35.911,26.154,35.858,26.085L35.858,26.085z M36.739,26.974c-0.493,0.147-1.5,0.13-1.731,0.04
	c-0.484-0.179-0.436,0.036-0.106,0.3c0.586,0.466,1.774,0.373,2.342,0.113c-0.034-0.044-0.051-0.153-0.042-0.22
	C37.035,27.173,36.844,27.086,36.739,26.974L36.739,26.974z M37.366,27.656c-0.444,0.185-1.351,0.32-1.666,0.192
	c-0.262-0.105-0.597-0.04-0.062,0.386c0.67,0.5,2.216,0.04,2.582-0.3C37.955,27.956,37.448,27.788,37.366,27.656L37.366,27.656z
	 M38.133,28.256c-0.383,0.279-1.146,0.473-1.546,0.435c-0.445-0.054-0.794,0.123-0.071,0.46c0.157,0.082,1.105,0.431,2.407-0.453
	C38.568,28.755,38.28,28.658,38.133,28.256L38.133,28.256z M35.21,25.043c-0.636,0.012-1.235-0.055-1.48-0.132
	c-0.451-0.131-0.586,0.227-0.158,0.664c0.377,0.373,1.816,0.356,2.278,0.216C35.236,25.521,35.21,25.273,35.21,25.043L35.21,25.043z
	 M33.048,25.096c-0.882-0.12-1.355-0.22-1.777-0.426c-0.424-0.216-0.875,0.072-0.146,0.717c0.64,0.559,2.052,0.544,2.601,0.539
	C33.397,25.726,33.091,25.43,33.048,25.096L33.048,25.096z M33.668,26.188c-0.828,0-1.572-0.08-1.937-0.227
	c-0.362-0.146-0.533,0.042-0.076,0.435c0.451,0.395,1.664,0.691,2.651,0.555c-0.011-0.042-0.011-0.124,0.007-0.174
	C34.051,26.618,33.752,26.382,33.668,26.188L33.668,26.188z M34.409,27.167c-0.857,0.089-1.473,0.048-1.926-0.132
	c-0.453-0.188-0.412,0.113-0.034,0.452c0.366,0.337,1.142,0.615,2.646,0.362c0.015-0.023,0.034-0.094,0.068-0.115
	C34.992,27.661,34.523,27.397,34.409,27.167L34.409,27.167z M35.128,28.077c-0.534,0.122-0.96,0.127-1.163,0.09
	c-0.391-0.053-0.53,0.092-0.098,0.403c0.439,0.318,1.351,0.417,1.967,0.157c0.008-0.026,0-0.086,0.008-0.109
	C35.622,28.509,35.262,28.267,35.128,28.077L35.128,28.077z M45.119,26.764c-0.54,0.617-1.154,1.036-1.757,1.044
	c-0.087,0.016-0.158,0.026-0.196,0.09l0.008-0.531c0.297,0.076,0.885-0.015,1.251-0.478c-1.11-0.898-0.099-3.259,2.296-2.364
	c-0.055,0.109-0.169,0.298-0.325,0.515C45.064,24.401,43.718,25.9,45.119,26.764L45.119,26.764z M46.202,25.309
	c-0.728-0.483-2.169,0.337-0.963,1.25c0.107-0.097,0.35-0.405,0.383-0.469c-0.448-0.201-0.296-0.66,0.214-0.309
	C45.936,25.684,46.143,25.419,46.202,25.309L46.202,25.309z M46.954,24.602c0.633,0.172,1.254,0.288,1.512,0.281
	c0.362-0.003,0.54,0.52-0.151,0.655c-0.747,0.15-1.324-0.184-1.738-0.367C46.698,24.993,46.881,24.732,46.954,24.602L46.954,24.602z
	 M46.425,25.419c0.375,0.158,1.101,0.393,1.354,0.372c0.368-0.031,0.585,0.102,0.167,0.36c-0.588,0.355-1.462,0.039-1.882-0.226
	C46.164,25.782,46.374,25.471,46.425,25.419L46.425,25.419z M45.876,26.188c0.453,0.178,1.097,0.359,1.352,0.354
	c0.36-0.019,0.318,0.232-0.062,0.384c-0.384,0.159-1.252,0.026-1.693-0.234C45.577,26.56,45.805,26.292,45.876,26.188L45.876,26.188
	z M45.334,26.869c0.44,0.216,1.031,0.384,1.261,0.366c0.267-0.019,0.322,0.215-0.105,0.427c-0.447,0.21-1.174-0.123-1.529-0.394
	C45.046,27.173,45.27,26.954,45.334,26.869L45.334,26.869z M44.799,27.426c0.395,0.252,0.734,0.372,0.976,0.485
	c0.241,0.114,0.058,0.662-0.395,0.531c-0.37-0.124-0.672-0.385-1.014-0.699C44.453,27.678,44.701,27.51,44.799,27.426L44.799,27.426
	z M44.136,27.87c0.341,0.334,0.681,0.581,0.908,0.698c0.288,0.135-0.026,0.496-0.489,0.395c-0.41-0.092-0.603-0.684-0.991-0.883
	C43.665,28.032,44.025,27.935,44.136,27.87L44.136,27.87z M48.409,26.085c0.448,0.09,1.358,0.08,1.526,0.005
	c0.393-0.146,0.476,0.111,0.099,0.36c-0.801,0.523-1.876,0.429-2.329,0.293c0.012-0.054,0.026-0.161,0.007-0.22
	C48.04,26.461,48.356,26.154,48.409,26.085L48.409,26.085z M47.53,26.974c0.493,0.147,1.496,0.13,1.734,0.04
	c0.482-0.179,0.438,0.036,0.105,0.3c-0.585,0.466-1.783,0.373-2.343,0.113c0.032-0.044,0.049-0.153,0.042-0.22
	C47.234,27.173,47.429,27.086,47.53,26.974L47.53,26.974z M46.907,27.656c0.44,0.185,1.347,0.32,1.665,0.192
	c0.256-0.105,0.592-0.04,0.059,0.386c-0.672,0.5-2.219,0.04-2.587-0.3C46.32,27.956,46.818,27.788,46.907,27.656L46.907,27.656z
	 M46.132,28.256c0.388,0.279,1.152,0.473,1.554,0.435c0.445-0.054,0.797,0.123,0.067,0.46c-0.157,0.082-1.109,0.431-2.406-0.453
	C45.704,28.755,45.99,28.658,46.132,28.256L46.132,28.256z M49.065,25.043c0.635,0.012,1.228-0.055,1.465-0.132
	c0.457-0.131,0.591,0.227,0.166,0.664c-0.376,0.373-1.815,0.356-2.275,0.216C49.028,25.521,49.065,25.273,49.065,25.043
	L49.065,25.043z M51.228,25.096c0.874-0.12,1.352-0.22,1.772-0.427c0.42-0.216,0.872,0.072,0.141,0.717
	c-0.635,0.559-2.046,0.544-2.595,0.539C50.874,25.726,51.178,25.43,51.228,25.096L51.228,25.096z M50.602,26.188
	c0.826,0,1.572-0.08,1.935-0.227c0.369-0.146,0.529,0.042,0.073,0.435c-0.45,0.395-1.664,0.691-2.645,0.555
	c0.01-0.042,0.01-0.124-0.011-0.174C50.214,26.618,50.514,26.382,50.602,26.188L50.602,26.188z M49.856,27.167
	c0.865,0.089,1.478,0.048,1.929-0.132c0.458-0.188,0.41,0.113,0.039,0.452c-0.375,0.337-1.145,0.615-2.645,0.362
	c-0.021-0.023-0.045-0.094-0.072-0.115C49.274,27.661,49.747,27.397,49.856,27.167L49.856,27.167z M49.137,28.077
	c0.542,0.122,0.963,0.127,1.168,0.09c0.386-0.053,0.529,0.092,0.097,0.403c-0.435,0.318-1.35,0.417-1.965,0.157
	c-0.008-0.026,0-0.086-0.008-0.109C48.646,28.509,49.006,28.267,49.137,28.077L49.137,28.077z M28.121,34.226
	c0,0.18,0,7.941,0,8.342c0,0.308-0.402,0.716-0.799,0.716c-0.246,0-1.175,0-1.533,0c-0.405,0-0.727-0.118-1.021-0.456
	c-0.233-0.267-5.108-6.428-5.108-6.428s0,5.669,0,6.168c0,0.403-0.252,0.716-0.586,0.716c-0.359,0-0.56,0-0.897,0
	c-0.334,0-0.604-0.324-0.604-0.716c0-0.311,0-7.966,0-8.342c0-0.379,0.445-0.628,0.64-0.628c0.223,0,3.392,0,3.632,0
	c0.243,0,0.428,0.08,0.569,0.258c0.141,0.175,3.548,4.448,3.548,4.448s0-3.66,0-4.08c0-0.301,0.186-0.623,0.628-0.627
	c0.302,0,0.513,0,0.929,0C27.817,33.598,28.121,33.966,28.121,34.226L28.121,34.226z M45.261,33.575
	c0.443,0,0.755,0.284,0.897,0.643l1.878,4.838c0,0,1.752-4.453,1.908-4.85c0.155-0.402,0.481-0.63,0.829-0.63c0,0,3.07,0,3.539,0
	c0.492,0,0.749,0.534,0.749,1.027v7.762c0,0,3.161-7.731,3.351-8.191c0.188-0.452,0.566-0.597,0.861-0.597c0,0,3.39,0,3.718,0
	c0.336,0,0.656,0.356,0.826,0.8c0,0,2.875,7.011,3.203,7.854c0.332,0.835-0.257,1.051-0.591,1.051c0,0-1.97,0-2.461,0
	c-0.511,0-0.83-0.422-0.951-0.699c0,0-0.491-1.14-0.635-1.56h-4.57c0,0-0.408,1.037-0.647,1.59
	c-0.235,0.555-0.502,0.667-0.869,0.667c0,0-3.938,0-4.479,0c-0.545,0-0.887-0.439-0.887-0.835v-5.273c0,0-1.88,4.812-2.129,5.427
	c-0.241,0.605-0.708,0.683-0.998,0.683c-0.28,0-1.163,0-1.605,0c-0.488,0-0.786-0.405-0.91-0.683l-2.17-5.427c0,0,0,5.081,0,5.535
	c0,0.43-0.378,0.574-0.693,0.574c-0.253,0-0.439,0-0.784,0c-0.337,0-0.607-0.288-0.607-0.64c0-0.308,0-8.001,0-8.286
	c0-0.296,0.188-0.779,0.864-0.779C41.9,33.575,44.816,33.575,45.261,33.575 M58.509,39.3h3.172l-1.593-3.896L58.509,39.3
	L58.509,39.3z M34.633,34.826c-0.317-0.007-0.757,0-1.235,0c0,0,0,7.368,0,7.743c0,0.341-0.279,0.716-0.724,0.716
	c-0.437,0-2.269,0-2.621,0c-0.361,0-0.781-0.413-0.781-0.716c0-0.333,0-7.815,0-8.231c0-0.32,0.345-0.761,0.893-0.761
	c0.405,0,5.684,0,5.684,0h1.022c2.573,0,3.44,1.536,3.404,2.59c-0.042,0.936-0.732,1.826-2.131,2.447c0,0,1.812,3.414,1.993,3.76
	c0.18,0.365-0.081,0.913-0.479,0.913c-0.401,0-2.657,0-2.919,0c-0.261,0-0.628-0.337-0.811-0.66
	c-0.175-0.309-2.154-4.034-2.154-4.034c-0.308-0.538-0.02-0.884,0.521-0.812c0.445,0.059,1.928-0.316,1.918-1.556
	C36.194,35.487,35.616,34.813,34.633,34.826L34.633,34.826z M16.926,55.559v4.825h-1.567v-4.825H16.926z M20.525,55.559l2.297,2.532
	v-2.532h1.064v4.825h-1.064l-2.518-2.768v2.768h-1.063v-4.825H20.525z M29.672,56.504c-0.404-0.146-0.802-0.248-1.143-0.248
	c-0.483,0-0.815,0.211-0.815,0.559c0,0.271,0.234,0.422,0.763,0.498l0.138,0.005c1.022,0.122,1.489,0.566,1.489,1.362
	c0,1.005-0.842,1.787-2.271,1.787c-0.488,0-1.186-0.104-1.688-0.222v-0.974c0.475,0.201,1.013,0.37,1.526,0.37
	c0.532,0,0.864-0.25,0.864-0.548c0-0.276-0.217-0.464-0.782-0.534l-0.147-0.01c-0.96-0.134-1.521-0.664-1.521-1.447
	c0-1.049,0.738-1.63,2.374-1.63c0.535,0,1.214,0.105,1.214,0.105V56.504L29.672,56.504z M33.862,58.507
	c0,0.585,0.284,0.816,0.613,0.816c0.498,0,1.042-0.473,1.042-1.509v-2.257h1.546v4.824h-1.553v-0.549
	c-0.588,0.399-1.136,0.632-1.728,0.632c-0.875,0-1.49-0.512-1.49-1.552v-3.356h1.568L33.862,58.507L33.862,58.507z M40.954,57.648
	v-1.291h0.321c0.436,0,0.695,0.258,0.695,0.588c0,0.452-0.414,0.703-0.839,0.703H40.954 M39.392,55.559v4.825h1.562v-1.905
	l1.044,1.905h1.731l-1.278-2.319c0.715-0.27,1.147-0.734,1.147-1.35c0-0.64-0.517-1.157-1.923-1.157L39.392,55.559L39.392,55.559z
	 M47.075,58.532l0.509-1.446l0.521,1.446H47.075 M47.253,55.559l-1.861,4.825h0.974l0.413-1.061h1.636l0.426,1.061h1.674
	l-1.919-4.825H47.253L47.253,55.559z M53.768,55.559l2.304,2.532v-2.532h1.06v4.825h-1.06l-2.52-2.768v2.768h-1.065v-4.825H53.768z
	 M63.638,56.467c-0.362-0.136-0.728-0.235-1.095-0.235c-0.874,0-1.57,0.569-1.57,1.649c0,1.183,0.796,1.823,1.785,1.823
	c0.282,0,0.597-0.078,0.881-0.146v0.825c-0.27,0.048-0.658,0.085-1.044,0.085c-2.072,0-3.269-1.033-3.269-2.672
	c0-1.415,1.05-2.324,3.046-2.324c0.52,0,0.847,0.057,1.268,0.125v0.869H63.638z M69.539,55.559v0.821h-2.111v1.116h2.111v0.809
	h-2.111v1.254h2.111v0.825h-3.678v-4.825H69.539z"/>
</svg>
