<?xml version="1.0" encoding="utf-8"?>
<!-- Generator: Adobe Illustrator 22.1.0, SVG Export Plug-In . SVG Version: 6.00 Build 0)  -->
<svg version="1.1" id="Layer_1" xmlns="http://www.w3.org/2000/svg" xmlns:xlink="http://www.w3.org/1999/xlink" x="0px" y="0px"
	 width="100px" height="100px" viewBox="0 0 100 100" style="enable-background:new 0 0 100 100;" xml:space="preserve">
<style type="text/css">
	.st0{fill:#B3B3B3;}
	.st1{fill:#3A3A3A;}
	.st2{fill:#F2F2F2;}
	.st3{fill:#D5D7D8;}
	.st4{fill:#FFFFFF;}
	.st5{fill:#9E005D;}
	.st6{opacity:0.15;}
	.st7{opacity:0.25;}
	.st8{opacity:0.15;fill:#3A3A3A;enable-background:new    ;}
	.st9{opacity:0.11;enable-background:new    ;}
</style>
<g id="base_x5F_paint">
	<path class="st0" d="M46.4,64.5c0,0-0.7-2.2-0.7-4.5s1.3-4.1,3-4.7c1.3-0.5,3.4,0,5.4,2l-4.2,0.5l-2.5,3.5v2.9L46.4,64.5z"/>
	<path class="st1" d="M48.9,56.7L48.9,56.7c0.5-0.4,1.4-0.8,1.9-0.9c0.2,0,0.6-0.1,0.9-0.2c1.6,0.8,3.3,2.3,4.6,5.1
		c1.6,3.3,2.8,6,3.4,7.3l-0.1,0.1c0,0-0.2,1-0.8,1.4c-0.6,0.5-4.1,1.8-4.7,1.9c-0.6,0.1-2.2-0.2-2.2-0.2c-2.1-0.4-4.3-2.7-5.2-5.9
		C45.7,61.5,46.6,57.8,48.9,56.7z"/>
	<path d="M52.1,71.4c-2.2-0.4-4.4-2.8-5.4-6c-1.2-3.9-0.3-7.7,2.1-8.8l0,0c0.5-0.4,1.5-0.8,1.9-0.9c0.2,0,0.5-0.1,0.9-0.2l0,0l0,0
		c1.3,0.6,3.1,2,4.7,5.2c1.6,3.4,2.9,6,3.4,7.3v0.1l-0.1,0.2c0,0.1-0.3,1-0.8,1.5c-0.6,0.5-4.1,1.8-4.8,1.9c-0.1,0-0.2,0-0.4,0
		C53.2,71.7,52.1,71.4,52.1,71.4z M56.3,60.8c-1.5-3-3.2-4.4-4.5-5c-0.4,0.1-0.7,0.2-0.9,0.2c-0.5,0.1-1.4,0.5-1.8,0.8H49
		c-2.2,1.1-3.1,4.8-2,8.5c0.9,3.1,3,5.4,5.1,5.8c0,0,1.5,0.3,2.1,0.2c0.6-0.1,4.1-1.4,4.7-1.9c0.5-0.4,0.7-1.4,0.7-1.4v-0.1
		C59.1,66.7,57.9,64.1,56.3,60.8z"/>
	<path class="st0" d="M7.5,40c0.9-1,2.3-0.8,3.6,0.2c-0.2-0.1-0.3-0.2-0.5-0.3l-1.1,0.2c-0.1,0-0.1,0-0.2,0
		c-0.2,0.1-0.6,0.2-0.9,0.4c-0.4,0.3-0.8,1-0.8,1l0,0c-0.7,1.1-1.1,2.8-0.8,4.8l-0.2-0.2C6.4,45,6.1,41.7,7.5,40z"/>
	<path id="CAR_FILL_1_" class="st2" d="M8.4,35.1C8.7,34.7,9,34.4,9,34.4s2.1-1,4.3-1.6c2.1-0.6,11.8-2.7,17.5-3
		c3.8-0.2,9.5,0.3,9.5,0.3s1.7-0.7,6.3-1.4c6.5-1.1,13.4-0.9,24.7,4.3c5.3,2.4,12.7,8.5,14.1,9.2s4.4,2.1,6,3.1s2.3,1.7,2.6,2.1
		c0.3,0.4,1.6,4.1,1.8,4.7c0.3,0.6,0.6,1.6,0.6,2.3s-0.7,4.7-0.9,5.5c-0.1,0.7-0.6,1.7-1.6,2.4c-1.8,1.4-3.9,2.7-6.8,3.8
		c-2.4,0.9-6.3,2.1-11.4,2.9l0,0c0.2-0.3,0.2-1-0.1-1.3c-0.5-0.4-1.4-0.4-2.2,0.3c-0.9,0.7-1.2,1.5-1.8,1.5h-0.1
		c-6,0.6-9-0.2-10.5-0.5c-0.1,0-0.4-0.1-0.7-0.2c0,0-1.5-3.4-3.9-8.2c-2.4-4.9-5.9-6.1-7.8-5.5c-1.7,0.6-3,2.4-3,4.7
		s0.7,4.5,0.7,4.5l0.2,0.4c-0.1,0.1-0.2,0.2-0.3,0.2c-0.3,0-3.1-1.7-4.4-2.3c-1.3-0.6-24.2-9.7-24.2-9.7s-0.4-0.1-0.6-0.3
		c-0.1-0.1-0.4-0.7-0.7-1.4c-1.2-2.5-1.6-5.8-2.6-8c-1.3-2.9-4.7-5.3-6.3-3.4c-1.6,1.9-0.9,5.7-0.8,6.4C6.8,47.1,7,47.8,7,47.8
		s-1.1-1.3-1.7-2.3C4.6,44.2,4.4,40,5,38.7c0.1-0.1,0.3-0.4,0.5-0.6"/>
	<path class="st1" d="M7.7,41.5L7.7,41.5c0,0,0.4-0.7,0.8-1c0.3-0.2,0.7-0.4,0.9-0.4c0.1,0,0.1,0,0.2,0l1.1-0.2
		c1.2,0.7,2.5,2.1,3.1,3.6c1,2.2,1.5,5.5,2.6,8c0.2,0.5,0.4,0.9,0.6,1.2c-0.2,0.2-0.5,0.3-0.5,0.3s-2.8,0.7-3.7,0.8s-2-0.5-2-0.5
		c-1.4-0.6-2.8-2.5-3.6-5C6.5,45.6,6.7,42.9,7.7,41.5z"/>
	<path d="M10.8,53.4c-1.5-0.7-2.9-2.6-3.6-5.1c-0.8-2.7-0.6-5.3,0.5-6.8l0,0c0.1-0.1,0.5-0.7,0.8-1c0.3-0.2,0.7-0.4,0.9-0.4
		c0.1,0,0.1,0,0.2,0l1.2-0.2l0,0c1.3,0.7,2.5,2.1,3.2,3.6c0.5,1.1,0.8,2.4,1.2,3.7c0.4,1.5,0.8,3,1.4,4.3c0.2,0.5,0.4,0.9,0.6,1.1
		l0.1,0.1l-0.1,0.1c-0.2,0.2-0.5,0.3-0.5,0.3c-0.1,0-2.8,0.7-3.7,0.8c-0.1,0-0.2,0-0.3,0C11.7,53.9,10.8,53.4,10.8,53.4z M16.3,51.5
		c-0.6-1.3-1-2.9-1.4-4.3c-0.4-1.3-0.7-2.6-1.2-3.7c-0.6-1.4-1.8-2.8-3-3.5l-1.1,0.2H9.5c-0.2,0.1-0.5,0.2-0.8,0.4
		c-0.4,0.2-0.8,0.9-0.8,0.9l-0.1,0.1l0,0c-0.9,1.4-1.1,4-0.3,6.5c0.7,2.4,2.1,4.3,3.5,4.9c0,0,1.1,0.6,1.9,0.5
		c0.9-0.1,3.7-0.8,3.7-0.8s0.2-0.1,0.3-0.2C16.7,52.4,16.5,52,16.3,51.5z"/>
	<path class="st3" d="M13.4,45.9c-0.8-2.9-2.8-4.8-4.3-4.2C7.6,42.4,7,45.2,7.9,48s2.7,4.7,4.3,4.2C13.7,51.7,14.3,48.9,13.4,45.9z"
		/>
	<path d="M10.6,52.1C9.4,51.5,8.3,50,7.8,48c-0.8-2.9-0.2-5.7,1.3-6.3c0.5-0.2,1-0.2,1.6,0.1c1.2,0.6,2.3,2.2,2.8,4.1
		c0.8,3,0.2,5.8-1.4,6.4c-0.2,0.1-0.4,0.1-0.6,0.1C11.2,52.4,10.9,52.3,10.6,52.1z M13.4,46c-0.5-1.9-1.6-3.5-2.8-4
		c-0.5-0.3-1-0.3-1.5-0.1c-1.5,0.6-2,3.4-1.2,6.2c0.5,1.9,1.6,3.4,2.7,4c0.5,0.3,1,0.3,1.5,0.2C13.6,51.6,14.2,48.8,13.4,46L13.4,46
		z"/>
	<path class="st3" d="M55.3,62.5c-1-3.2-3.5-5.3-5.6-4.7c-2.2,0.6-3.1,3.9-2.1,7.3c1,3.5,3.7,5.6,5.8,4.8
		C55.6,69.1,56.3,65.8,55.3,62.5z"/>
	<path d="M51.1,69.8c-1.5-0.7-2.8-2.5-3.5-4.6c-0.6-2.1-0.5-4.3,0.3-5.8c0.5-0.8,1.1-1.4,1.9-1.6c2.1-0.6,4.6,1.5,5.7,4.8
		c1,3.3,0.2,6.6-1.9,7.4c-0.3,0.1-0.7,0.2-1,0.2C52,70.1,51.5,70,51.1,69.8z M49.8,57.9c-0.7,0.2-1.3,0.7-1.8,1.6
		c-0.8,1.5-0.9,3.6-0.3,5.7c0.6,2.1,1.9,3.8,3.4,4.5c0.8,0.4,1.6,0.5,2.3,0.2c2-0.8,2.8-4,1.8-7.3l0,0c-0.9-2.8-2.9-4.8-4.7-4.8
		C50.3,57.8,50,57.8,49.8,57.9z"/>
	<path d="M52.1,64.3c-0.2-0.1-0.3-0.3-0.4-0.5c-0.1-0.2-0.1-0.5,0-0.6s0.1-0.2,0.2-0.2c0.3-0.1,0.5,0.2,0.7,0.5l0,0
		c0.1,0.4,0,0.7-0.2,0.8h-0.1C52.3,64.3,52.2,64.3,52.1,64.3z M52.5,63.5c-0.1-0.3-0.3-0.5-0.5-0.4c-0.1,0-0.1,0.1-0.1,0.1
		c-0.1,0.1-0.1,0.3,0,0.5s0.2,0.4,0.3,0.4c0,0,0.1,0,0.2,0C52.6,64.1,52.6,63.8,52.5,63.5L52.5,63.5z"/>
	<path d="M51.9,65c-0.4-0.2-0.7-0.6-0.8-1.1c-0.2-0.5-0.1-1,0.1-1.4c0.1-0.2,0.3-0.3,0.5-0.4c0.5-0.1,1.1,0.3,1.4,1.1
		c0.2,0.8,0,1.6-0.5,1.8c-0.1,0-0.2,0-0.2,0C52.2,65.1,52.1,65.1,51.9,65z M51.7,62.3c-0.2,0-0.3,0.2-0.4,0.3
		c-0.2,0.3-0.2,0.8-0.1,1.3c0.1,0.5,0.4,0.8,0.7,1c0.2,0.1,0.3,0.1,0.5,0c0.4-0.2,0.6-0.9,0.4-1.6l0,0c-0.2-0.6-0.6-1.1-1-1.1
		C51.8,62.3,51.7,62.3,51.7,62.3z"/>
	<path d="M11.2,48.2c-0.3-0.2-0.6-0.5-0.7-1c-0.2-0.7-0.1-1.4,0.3-1.6c0.1-0.1,0.3,0,0.4,0c0.3,0.1,0.6,0.5,0.7,1
		c0.2,0.8,0.1,1.5-0.4,1.6c0,0-0.1,0-0.2,0C11.3,48.2,11.3,48.2,11.2,48.2z M10.9,45.7c-0.3,0.1-0.4,0.8-0.3,1.4
		c0.1,0.4,0.4,0.8,0.6,0.9c0.1,0.1,0.2,0.1,0.3,0c0.3-0.1,0.5-0.8,0.3-1.4l0,0c-0.1-0.4-0.4-0.8-0.6-0.9c-0.1,0-0.1,0-0.2,0
		C10.9,45.7,10.9,45.7,10.9,45.7z"/>
	<path d="M11.2,47.5c-0.1-0.1-0.3-0.3-0.3-0.5c-0.1-0.4,0-0.7,0.2-0.8c0.1,0,0.2,0,0.2,0c0.2,0.1,0.3,0.3,0.4,0.5l0,0
		c0.1,0.4,0,0.7-0.2,0.8h-0.1C11.3,47.6,11.2,47.5,11.2,47.5z M11.1,46.4c-0.1,0-0.2,0.3-0.1,0.6c0.1,0.2,0.2,0.4,0.3,0.4h0.1
		c0.1,0,0.2-0.3,0.1-0.6l0,0c-0.1-0.2-0.2-0.4-0.3-0.4C11.2,46.4,11.1,46.4,11.1,46.4L11.1,46.4z"/>
	<path class="st4" d="M5.6,38c0.1-0.5,0.4-1.4,0.9-1.9c0.5-0.4,1.3-0.7,1.9-0.9"/>
	<path class="st0" d="M73.4,68.1c0.3-0.3,0.6-0.4,1-0.5l0.9,0.5l-0.9,2c-0.1,0-1.9-1-1.9-1l-0.1,0.2C72.6,68.9,72.9,68.5,73.4,68.1z
		"/>
	<path d="M74.3,70.1c-0.1,0-1.6-0.8-1.8-1l-0.1,0.1l-0.1-0.1l0.2-0.2l0,0l0.1-0.1c0.2-0.2,0.5-0.5,0.8-0.8l0,0
		c0.3-0.3,0.7-0.5,1-0.5l0,0l1,0.5L74.3,70.1L74.3,70.1z M74.3,67.6c-0.3,0.1-0.6,0.2-0.9,0.5l0,0c-0.3,0.3-0.6,0.6-0.8,0.8
		c0,0,0,0-0.1,0.1c0.6,0.3,1.5,0.8,1.7,0.9l0.9-1.9L74.3,67.6z"/>
	<path class="st0" d="M74.2,68.5c-0.4,0.5-0.4,1-0.1,1.4c0.3,0.3,0.9,0.2,1.3-0.2c0.4-0.5,0.5-1.2,0.1-1.5
		C75.2,67.9,74.6,68,74.2,68.5z"/>
	<path d="M74.1,69.9c-0.3-0.3-0.3-1,0.1-1.4l0,0c0.4-0.5,1-0.7,1.4-0.4c0.2,0.1,0.3,0.3,0.3,0.6c0,0.3-0.1,0.7-0.4,1
		c-0.2,0.3-0.6,0.4-0.9,0.5l0,0C74.4,70.1,74.2,70.1,74.1,69.9z M74.3,68.6L74.3,68.6c-0.3,0.4-0.4,1-0.1,1.3
		c0.1,0.1,0.3,0.2,0.5,0.2c0.3,0,0.6-0.2,0.8-0.4c0.2-0.3,0.4-0.6,0.3-0.9c0-0.2-0.1-0.4-0.2-0.5s-0.2-0.1-0.4-0.1
		C74.8,68.1,74.5,68.3,74.3,68.6z"/>
	<path class="st1" d="M74.4,68.6c-0.3,0.4-0.3,0.8-0.1,1.1c0.2,0.2,0.7,0.2,1-0.2c0.3-0.4,0.4-0.9,0.1-1.2
		C75.1,68.1,74.7,68.3,74.4,68.6z"/>
	<path d="M74.2,69.8C74,69.5,74,69,74.3,68.6l0,0c0.3-0.4,0.8-0.6,1.1-0.3c0.1,0.1,0.2,0.2,0.2,0.4c0,0.3-0.1,0.6-0.3,0.8
		c-0.2,0.2-0.5,0.4-0.7,0.4l0,0C74.5,69.9,74.3,69.9,74.2,69.8z M74.4,68.7c-0.3,0.3-0.3,0.8-0.1,1c0.1,0.1,0.2,0.1,0.3,0.1
		c0.2,0,0.4-0.1,0.6-0.3c0.2-0.2,0.3-0.5,0.3-0.7c0-0.1-0.1-0.3-0.2-0.3c-0.1-0.1-0.2-0.1-0.3-0.1C74.9,68.3,74.6,68.4,74.4,68.7z"
		/>
	<polygon points="74.4,67.5 75.8,68.3 75.6,67.9 75.4,67.6 74.9,67.5 	"/>
	<path class="st3" d="M39.2,31.5c0,0,3.7-1.2,6-1.7c2.6-0.6,4-0.9,6.1-1.1c0.1,0,0.3,0,0.4,0c3.1-0.1,6.5,0.3,10.5,1.5l0,0
		c0,0-4.6,0.7-7.8,1.4c-3.3,0.8-6.6,1.9-6.6,1.9l-0.2-0.1c-0.7-0.3-1.2-0.5-1.9-0.7C43.3,31.8,41.1,31.5,39.2,31.5"/>
	<path class="st3" d="M53.5,47.2c-0.1,0-22.1-6.3-28.9-8.2c-0.1,0-0.2,0-0.2,0l-0.1-0.7l0.3-1.3c0,0,0.1,0,0.2-0.1
		c2.8-1.4,7.9-3.5,11.4-3.2c4.7,0.4,9.2,2,13.2,4.8c3.1,2.2,5.8,5,5.8,6.3C55.3,45.7,53.5,47.2,53.5,47.2z"/>
	<path class="st3" d="M75.3,35.8c0.1,0,8.6,6.2,8.6,6.2s0.8,0.6,0.7,1s-2.1,2-6.7,3.2c-4.6,1.1-11.4,2.4-13.2,1.9
		c-1.8-0.5-4.5-3.5-4.5-3.5l-4.1-4c0,0,2.7-1.2,4.7-1.6c2.4-0.5,6.6-1.8,12.1-2.9C74.1,35.9,75.3,35.8,75.3,35.8z"/>
	<path class="st3" d="M75.3,35.8c0.1,0,8.6,6.2,8.6,6.2s0.8,0.6,0.7,1s-2.1,2-6.7,3.2c-4.6,1.1-11.4,2.4-13.2,1.9
		c-1.8-0.5-4.5-3.5-4.5-3.5l-4.1-4c0,0,2.7-1.2,4.7-1.6c2.4-0.5,6.6-1.8,12.1-2.9C74.1,35.9,75.3,35.8,75.3,35.8z"/>
	<path class="st5" d="M94.5,51.6c-0.1,0.1-0.4,0.3-0.8,0.5c0-0.2,0-0.4-0.1-0.6c0-0.4-0.1-0.9-0.1-1.2c-0.1-1,0.4-1.5,0.4-1.5l0,0
		c0.1-0.2,0.2-0.4,0.2-0.5l0.2,0.4l0.8,2.1C95.1,50.7,95,51.1,94.5,51.6z"/>
	<path class="st5" d="M91.7,52.7L91.7,52.7c0,0-0.8-0.7-1-0.9s-0.1-0.5,0-0.6s0.5-0.3,0.8-0.5c0.1-0.1,0.2-0.1,0.3-0.1
		c0.7-0.4,1.3-1,1.7-1.5c-0.1,0.3-0.2,0.6-0.1,1.1c0,0.4,0.1,0.8,0.1,1.2c0,0.2,0,0.5,0.1,0.7c-0.6,0.3-1.4,0.7-1.5,0.7
		C91.9,52.9,91.7,52.7,91.7,52.7z"/>
	<path class="st5" d="M67.1,57.9c-0.8-0.2-2.1-1.3-2.5-1.7c-0.4-0.5-1.1-1.5-1.1-1.8s0.5-0.7,0.8-0.8c0.1,0,1.2,0.3,2.1,0.6
		c1,0.3,2.1,0.6,2.6,0.7c0.2,0,0.6,0,1,0.1l0,0l0,0c0.2,0,0.5,0,0.7,0c1.3,0.1,2,0.7,2.4,1.3s0.9,1.1,1.4,1.6
		c-1.2,0.2-2.5,0.3-3.4,0.3C69.2,58.1,67.9,58,67.1,57.9z"/>
	<path class="st5" d="M71.6,54.9c1.8,0,3.9,0,4.7,0c1.3-0.1,2.4-0.3,2.4-0.3l0,0l0,0l0,0c0,0,0.1,0,0.2,0.1c0.1,0.2-0.3,2-1.2,2.4
		c-0.5,0.3-1.7,0.5-2.9,0.7c-0.5-0.5-1-1.1-1.5-1.7C72.9,55.7,72.4,55.2,71.6,54.9z"/>
	<path class="st2" d="M22.5,36.5c0.2-0.1,0.6-0.1,1.6,0c-0.4,0.3-0.8,0.9-1,1.3c-0.4,0.7-0.5,1.7-0.4,2.1c-0.2-0.1-0.6-0.2-0.8-0.4
		c-0.3-0.3-0.5-1.3-0.4-1.9C21.5,37.1,22.1,36.6,22.5,36.5z"/>
	<path class="st4" d="M23.6,39.7c-0.2,0.2-0.5,0.2-0.6,0.2c-0.1-0.1,0-1.1,0.3-1.8c0.4-0.7,0.9-1.2,1.1-1.3c0,0.2,0,1-0.1,1.3v0.1
		c0,0.6-0.1,0.9-0.2,1C24.1,39.3,23.8,39.5,23.6,39.7z"/>
	<g id="interior">
		<g class="st6">
			<path class="st1" d="M69.2,38.1v-1.2c-4,0.9-6.4,1.6-8.3,2c-2,0.4-4.7,1.6-4.7,1.6l4.1,4c0,0,2.7,3,4.5,3.5
				c1.8,0.5,8.6-0.8,13.2-1.9c4.6-1.1,6.6-2.7,6.7-3.2c0-0.1,0-0.3-0.1-0.4c-0.3-0.3-0.6-0.6-0.6-0.6s-2.4-1-6.2-1.9
				C74,39.1,69.2,38.1,69.2,38.1z"/>
		</g>
		<g class="st7">
			<path class="st1" d="M84.6,42.8L84.6,42.8C84.6,42.7,84.6,42.7,84.6,42.8c0-0.1,0-0.1,0-0.2l0,0v-0.1c-0.3-0.3-0.6-0.6-0.6-0.6
				s-0.6-0.3-1.8-0.6c-0.2,0.2-0.6,0.4-1,0.6c0,0-0.1,0-0.2-0.1l-0.5-0.1c-0.1,0-0.2,0-0.3,0l-3.7,0.9c-0.3,0.1-0.5,0.3-0.4,0.5l0,0
				c0,0,0,0.3,0,0.7c-0.1,0-0.3,0.1-0.4,0.1c-1,0.3-2.2,0.5-3.5,0.8c0-0.2-0.2-0.3-0.4-0.4l-0.5-0.1c-0.1,0-0.2,0-0.3,0l-4,0.6
				c-0.3,0-0.5,0.2-0.5,0.5v-0.1c0,0,0,0.3,0,0.6c-2,0.3-3.7,0.6-4.2,0.7c0.2,0.2,0.4,0.3,0.6,0.5c0.6,0.5,1.4,0.9,1.9,1
				c1.8,0.5,8.6-0.8,13.2-1.9c4.6-1.1,6.6-2.7,6.7-3.2C84.6,42.9,84.6,42.9,84.6,42.8L84.6,42.8z"/>
		</g>
		<path class="st8" d="M53.5,47.1c0.3-0.4-1.1-4.4-1.7-6.7c-0.8-0.7-1.6-1.3-2.4-1.9c-1.4-1-2.9-1.9-4.5-2.6
			c-0.2,0.1-0.4,0.3-0.4,0.4c-0.4,0.6-0.5,1.5-0.6,2.6s-0.6,1.7-1.3,3c-0.2,0.4-0.3,1.1-0.5,2C46.6,45.2,51.7,46.6,53.5,47.1z"/>
		<g>
			<g class="st6">
				<path class="st1" d="M62.5,46.7c-0.1-0.1-0.2-0.1-0.2-0.2C62.4,46.6,62.5,46.7,62.5,46.7z"/>
			</g>
			<g class="st6">
				<path class="st1" d="M66.5,45.8c0-0.3,0-0.6,0-0.6v0.1c0-0.1,0.1-0.3,0.2-0.3c-0.1-1.1-0.3-2.3-0.5-2.8c-0.5-1.5-1-2.4-1.3-4.2
					c-1.6,0.4-2.9,0.8-4,1c-2,0.4-4.7,1.6-4.7,1.6l4.1,4c0,0,0.9,1,2,2C62.8,46.4,64.5,46.1,66.5,45.8z"/>
			</g>
			<g class="st6">
				<path class="st1" d="M62.9,47c0.4,0.3,0.9,0.6,1.3,0.8l0,0C63.8,47.6,63.3,47.3,62.9,47z"/>
			</g>
			<g class="st6">
				<path class="st1" d="M62.9,47c-0.1-0.1-0.2-0.1-0.3-0.2C62.7,46.8,62.8,46.9,62.9,47z"/>
			</g>
		</g>
		<path class="st8" d="M53.5,47.2c-0.1,0-22.1-6.3-28.9-8.2c-0.1,0-0.2,0-0.2,0l-0.1-0.7l0.3-1.3c0,0,0.1,0,0.2-0.1
			c2.8-1.4,7.9-3.5,11.4-3.2c4.7,0.4,9.2,2,13.2,4.8c3.1,2.2,5.8,5,5.8,6.3C55.3,45.7,53.5,47.2,53.5,47.2z"/>
	</g>
</g>
<g id="outlines">
	<path d="M5.2,45.5c0.6,1.1,1.7,2.3,1.7,2.4l0.2-0.1c0,0-0.2-0.7-0.3-1.4c0,0-0.9-4.3,0.8-6.3c0.4-0.5,1-0.7,1.7-0.6
		c1.6,0.2,3.5,2,4.4,4c0.5,1.1,0.8,2.3,1.2,3.7c0.4,1.5,0.8,3,1.4,4.3c0.2,0.6,0.6,1.3,0.7,1.4c0.2,0.2,0.6,0.3,0.6,0.3
		c0.2,0.1,22.9,9.1,24.2,9.7c0.6,0.3,1.6,0.8,2.5,1.3c1.3,0.7,1.8,1,2,1s0.3-0.1,0.4-0.3v-0.1l-0.2-0.4c-0.1-0.2-0.6-2.3-0.7-4.4
		c0-2.1,1.1-3.9,2.9-4.6c2.1-0.7,5.4,0.9,7.6,5.4c2.3,4.6,3.7,7.9,3.9,8.2l0.1,0.1l0,0c0.3,0.1,0.6,0.1,0.7,0.2
		c0.2,0,0.5,0.1,0.8,0.1c1.2,0.2,3,0.6,5.8,0.6c1.2,0,2.5-0.1,4-0.2h0.1c0.4,0,0.7-0.4,1.1-0.8c0.2-0.2,0.5-0.5,0.8-0.8
		c0.8-0.7,1.6-0.6,2-0.3c0.3,0.3,0.3,0.9,0.1,1.1l0,0l0.1,0.2c5.7-0.9,9.6-2.2,11.4-2.9c2.7-1,4.8-2.2,6.9-3.9
		c0.8-0.7,1.4-1.6,1.6-2.5s0.9-4.8,0.9-5.6S96.3,52.5,96,52c-0.1-0.2-0.4-1.1-0.8-2c-0.5-1.2-0.9-2.5-1.1-2.7
		c-0.3-0.4-0.9-1.1-2.6-2.2c-1.3-0.8-3.6-1.9-5.1-2.7c-0.3-0.2-0.6-0.3-0.9-0.4c-0.5-0.2-1.6-1-3-2.1c-3-2.2-7.5-5.5-11.1-7.2
		c-11.7-5.4-18.9-5.3-24.8-4.3c-4.3,0.7-6,1.3-6.3,1.4c-0.5,0-5.9-0.5-9.5-0.3c-5.7,0.3-15.5,2.5-17.5,3C11.1,33.2,9,34.2,9,34.2
		l0,0c0,0-0.3,0.3-0.7,0.8l0.1,0.1c-0.3,0.4-0.6,0.7-0.8,0.9c-0.3,0.3-0.8,0.8-1.3,1.3C6,37.5,5.8,37.8,5.6,38l-0.1-0.1
		c-0.3,0.3-0.5,0.5-0.6,0.7C4.3,39.9,4.5,44.2,5.2,45.5z M85.3,57.2c-3.9,1.2-8.5,2.1-8.9,1.9c-0.2-0.1-0.8-0.5-1.5-1.2
		c1.3-0.2,2.4-0.5,2.9-0.7c0.8-0.4,1.3-1.9,1.3-2.4c0-0.1,0-0.2-0.1-0.3s-0.2-0.1-0.3-0.1h-0.1c-0.2,0-1.2,0.2-2.4,0.3
		c-0.9,0-3.6,0.1-5.5,0c-0.1,0-0.2,0-0.3,0c3.3-0.2,9.3-1.4,14.6-3.1c0.1,0,0.3-0.1,0.4-0.1h0.1c6.7-2,7.7-3,8.1-3.3l0,0
		c0.1-0.1,0.2-0.2,0.2-0.3l0,0c0,0.2,0,0.5-0.1,0.7l0,0l0,0l0,0l-0.1,0.1c-0.4,0.4-1,1.3-1.9,1.8c-0.1,0-0.2,0.1-0.3,0.1
		c-0.5,0.3-0.8,0.4-0.9,0.5c-0.1,0.2-0.2,0.5,0,0.7s0.9,0.8,1,0.9c0,0,0.2,0.2,0.4,0.2H92c0.2,0,0.9-0.4,1.5-0.7c0,0.4,0.1,0.7,0,1
		c0,0.5-0.2,0.6-0.4,0.8c-0.1,0-0.1,0.1-0.2,0.2c-0.2,0.2-2.9,1.4-7,2.7C85.7,57,85.5,57,85.3,57.2L85.3,57.2z M73.3,56.1
		c-0.3-0.4-0.9-0.9-1.7-1.2c1.8,0,3.9,0,4.7,0c1.3-0.1,2.4-0.3,2.4-0.3l0,0l0,0l0,0c0,0,0.1,0,0.2,0.1c0.1,0.2-0.3,2-1.2,2.4
		c-0.5,0.3-1.7,0.5-2.9,0.7C74.3,57.3,73.7,56.7,73.3,56.1z M74.6,57.8c-1.2,0.2-2.5,0.3-3.4,0.3c-1.9,0-3.3-0.1-4.1-0.3
		c-0.8-0.2-2.1-1.3-2.5-1.7c-0.4-0.5-1.1-1.5-1.1-1.8s0.5-0.7,0.8-0.8c0.1,0,1.2,0.3,2.1,0.6c1,0.3,2.1,0.6,2.6,0.7
		c0.2,0,0.6,0,1,0.1l0,0l0,0c0.2,0,0.5,0,0.7,0c1.3,0.1,2,0.7,2.4,1.3C73.6,56.8,74.1,57.3,74.6,57.8z M94.5,51.6
		c-0.1,0.1-0.4,0.3-0.8,0.5c0-0.2,0-0.4-0.1-0.6c0-0.4-0.1-0.9-0.1-1.2c-0.1-1,0.4-1.5,0.4-1.5l0,0c0.1-0.2,0.2-0.4,0.2-0.5l0.2,0.4
		l0.8,2.1C95.1,50.7,95,51.1,94.5,51.6z M93.6,52.1c-0.6,0.3-1.4,0.7-1.5,0.7c-0.2,0-0.3-0.1-0.3-0.1l0,0c0,0-0.8-0.7-1-0.9
		s-0.1-0.5,0-0.6s0.5-0.3,0.8-0.5c0.1-0.1,0.2-0.1,0.3-0.1c0.7-0.4,1.3-1,1.7-1.5c-0.1,0.3-0.2,0.6-0.1,1.1c0,0.4,0.1,0.8,0.1,1.2
		C93.6,51.7,93.6,51.9,93.6,52.1z M86.3,65.3c3.2-1.1,5.7-2.5,6.3-3c0.7-0.5,2.5-5,2.6-5.4c0.1-0.3,0.5-0.5,0.7-0.5
		c-0.2,1.4-0.5,3-0.6,3.5c-0.1,0.6-0.6,1.6-1.5,2.3c-2,1.6-4.2,2.8-6.8,3.8c-1.8,0.7-5.6,1.9-11.1,2.8c0.1-0.4,0.1-0.9-0.2-1.2
		c-0.6-0.5-1.6-0.4-2.4,0.3c-0.3,0.3-0.6,0.6-0.8,0.8c-0.3,0.4-0.6,0.7-0.9,0.7h-0.1c-5.1,0.5-8,0-9.7-0.3c-0.4,0-0.6-0.1-0.8-0.1
		c-0.1,0-0.3-0.1-0.6-0.1c-0.3-0.6-1.7-3.7-3.8-8.2c-0.1-0.1-0.1-0.2-0.2-0.4c0.6,0.2,3,0.7,5.9,1.1c3,0.4,6.8,0.6,9,0.6
		c0.3,0,0.5,0,0.7,0c2-0.1,9.8-1.9,14.2-3.2c4.5-1.3,9.3-3.4,9.7-3.8c0.1-0.1,0.2-0.2,0.2-0.3c0,0.4-0.1,0.9-0.2,1.5
		c-0.2,0.1-0.8,0.3-0.9,0.7c-0.1,0.5-1.9,4.8-2.6,5.3c-0.6,0.5-3.1,1.9-6.3,2.9H86c-0.1,0-0.2,0.1-0.3,0.1C83.1,66,80,67,78.9,66.6
		c-1-0.3-1.9-1.4-2.2-1.9c-0.1-0.2-0.2-0.4-0.4-0.6c-0.3-0.5-0.6-1-0.8-1.1c-0.2-0.1-0.7,0-1.6,0.1c-0.8,0.1-1.7,0.3-2.3,0.3
		c-1.5,0-3.6-0.1-3.6-0.1v0.1c0,0,2.1,0.2,3.6,0.1c0.7,0,1.5-0.1,2.3-0.3c0.7-0.1,1.4-0.2,1.5-0.2c0.2,0.1,0.5,0.6,0.7,1
		c0.1,0.2,0.3,0.5,0.4,0.6c0.3,0.5,1.2,1.6,2.3,1.9c0.2,0,0.4,0.1,0.6,0.1c1.1,0,3.1-0.5,6.3-1.5c0.1,0,0.2-0.1,0.2-0.1L86.3,65.3z
		 M21.4,38.7c0.1,0.4,0.2,0.8,0.4,0.9c0.3,0.3,0.9,0.5,1,0.5l0,0l0,0c0,0,0.1,0,0.2,0c0.2,0,0.5-0.1,0.7-0.2
		c0.3-0.2,0.7-0.5,0.8-0.7c0-0.1,0.1-0.2,0.1-0.3h0.1c4,1.2,8.3,2.4,12.3,3.5l-2.2,2.7c0,0-0.2,0.3-0.3,0.4c0,0,0,0,0,0.1h0.1l0,0
		c0.1-0.1,0.3-0.4,0.3-0.4l2.2-2.7c8,2.3,14.9,4.3,16.2,4.6c-0.3,0.3-1.1,1.1-1.7,1.6c-0.7,0.5-1.3,1.1-1.6,1.5c0,0,0,0-0.1,0.1h0.2
		l0,0c0.4-0.4,0.9-1,1.6-1.5c0.7-0.5,1.6-1.4,1.8-1.6h0.1l0,0l0,0c0.1-0.1,1.7-1.4,1.7-2.5c0-1.4-2.9-4.2-5.9-6.3
		c-3.9-2.8-8.3-4.4-13.3-4.8c-3.6-0.3-8.7,1.9-11.4,3.2h-0.1c0-0.3-0.1-0.4-0.2-0.4s-0.1,0-0.2,0c-0.5,0-0.9-0.1-1.2-0.1
		c0.4-0.2,1-0.4,1.6-0.7c0.6-0.2,3.2-1.3,4.9-2h0.1c0.8-0.3,1.4-0.5,1.4-0.6c0.1,0,6-2.2,12.9,0.1c6.5,2.1,11.3,6.7,11.9,7.4l0,0
		l0.1,0.1l0.3,0.3l0.3,0.3l0.1,0.1l3.3,3.2c0.1,0.1,2.7,3,4.5,3.5c0.3,0.1,0.6,0.1,1.1,0.1c2.4,0,7-0.9,10.6-1.7h0.1
		c0.5-0.1,1-0.2,1.4-0.3c4.5-1.1,6.6-2.7,6.7-3.2s-0.7-1-0.7-1.1c-8.5-6.2-8.6-6.2-8.6-6.2l0,0c0,0-1.2,0.1-2.3,0.3
		c-3.6,0.7-6.8,1.5-9.1,2.1c-1.2,0.3-2.3,0.6-3.1,0.8c-1.8,0.4-4.3,1.4-4.7,1.6c-0.4-0.4-5.3-5.2-12-7.5c-4.6-1.5-8.8-1.1-11.1-0.6
		c2.5-0.9,5-1.6,7.3-2.2l0,0c0,0,1.7-0.7,6.2-1.4c6.8-1.1,13.6-0.8,24.6,4.3c3.5,1.6,8.1,4.9,11,7.1c1.5,1.1,2.6,1.9,3,2.1
		c0.3,0.1,0.6,0.3,0.9,0.4c1.5,0.7,3.8,1.9,5.1,2.7c1.7,1.1,2.3,1.8,2.5,2.1c0,0,0,0.1,0.1,0.1c0,0.1-0.1,0.3-0.2,0.5l0,0
		c-0.3,0.3-1.3,1.3-8,3.3h-0.1c-0.1,0-0.3,0.1-0.4,0.1c-7.6,2.3-14.9,3.4-16.7,3l0,0c-0.5-0.1-1.3-0.4-2-0.6c-1.3-0.4-2-0.6-2.2-0.6
		c-0.3,0.1-0.9,0.6-0.9,0.9c0,0.4,0.8,1.5,1.2,1.9s1.8,1.6,2.6,1.8c0.8,0.2,2.1,0.3,4.1,0.3c0.9,0,2.3-0.1,3.5-0.3
		c0.7,0.7,1.4,1.2,1.6,1.3c0,0,0.1,0,0.2,0c1,0,5.2-0.9,8.8-1.9H85c0.2-0.1,0.5-0.1,0.7-0.2c3.9-1.2,6.8-2.5,7.1-2.8
		c0.1-0.1,0.1-0.1,0.2-0.2c0.2-0.2,0.4-0.3,0.4-0.9c0-0.3,0-0.6,0-1.1c0.4-0.2,0.7-0.4,0.8-0.5c0.3-0.3,0.5-0.5,0.6-0.7
		c0.2,0.6,0.4,1,0.5,1.2c0.3,0.5,0.5,1.5,0.6,2.2c-0.1,0.2-0.2,0.4-0.3,0.6c-0.4,0.3-5,2.4-9.7,3.8c-4.1,1.4-12,3.2-13.9,3.3
		c-2,0.1-6.3-0.2-9.7-0.6c-3.2-0.4-5.7-1-6.1-1.1c-1.3-2.5-2.8-3.7-3.9-4.3c-1.4-0.8-2.7-1-3.8-0.7c-1.9,0.7-3.1,2.6-3.1,4.8
		c0,2.3,0.7,4.5,0.7,4.5l0,0l0.2,0.3c0,0.1-0.1,0.1-0.1,0.1c-0.1,0-1.1-0.5-1.9-1c-0.9-0.5-1.9-1-2.5-1.3c-1-0.5-15.8-6.3-21.7-8.7
		l0,0l-0.2-0.1c-1.3-0.5-2.1-0.8-2.2-0.9c-0.2-0.1-0.4-0.2-0.5-0.3s-0.3-0.6-0.7-1.3c-0.1-0.2-0.2-0.4-0.3-0.7
		c1.2,0.5,7.6,3.2,11.4,4.6c0.9,0.3,2,0.8,3.4,1.3c6,2.3,11.1,4.2,12.3,4.2c0.1,0,0.2,0,0.2,0c0.6-0.3,0.9-1.4,0.9-1.5
		c0,0,2.1-5.3,2.7-6.1c0.4-0.7,1.6-1.7,2.3-2.3l0.1-0.1c-0.1,0-0.1,0-0.2,0l0,0c-0.7,0.6-1.9,1.7-2.3,2.4c-0.6,0.8-2.6,5.9-2.7,6.1
		c0,0-0.3,1.1-0.8,1.4c-0.4,0.2-4.9-1.4-9-2.9c0-0.1-0.1-0.5-0.2-0.8c-0.1-0.2,0-0.9,0.1-1.3c0-0.2,0-0.3,0.1-0.4
		c0-0.2-0.1-0.8-0.2-1.5c-0.1-0.7-0.3-1.4-0.4-2.1c-0.2-1.3,0-3.2,0-3.7c0-0.2,0.2-0.6,0.4-0.9c0-0.1,0.1-0.1,0.1-0.2h-0.1
		c0,0.1-0.1,0.1-0.1,0.2c-0.2,0.3-0.4,0.7-0.4,1c0,0.4-0.2,2.4,0,3.7c0.1,0.7,0.2,1.4,0.4,2.1c0.1,0.7,0.2,1.3,0.2,1.5
		c0,0.1,0,0.3-0.1,0.4c-0.1,0.5-0.2,1.1-0.1,1.4c0.1,0.2,0.1,0.6,0.2,0.7c-1.1-0.4-2.2-0.8-3.2-1.2c-1.3-0.5-2.5-0.9-3.4-1.3
		c-4-1.5-10.9-4.4-11.6-4.7c-0.4-1.1-0.7-2.3-1.1-3.4c-0.4-1.4-0.7-2.6-1.2-3.7c-1-2.1-2.9-3.9-4.6-4.1c-0.8-0.1-1.4,0.1-1.9,0.7
		c-1.7,2-0.9,6.3-0.8,6.5c0.1,0.3,0.1,0.5,0.2,0.7c-0.4-0.5-0.9-1.2-1.3-1.8c-0.7-1.2-0.9-5.4-0.3-6.7c0-0.1,0.2-0.3,0.5-0.6l0,0
		c0.2-0.2,0.5-0.4,0.7-0.7c0.5-0.5,1-0.9,1.3-1.3c0.2-0.2,0.4-0.6,0.7-0.9l0,0C8.7,34.9,9,34.6,9,34.5c0.3-0.1,2.2-1,4.2-1.5
		c0.5-0.1,1.4-0.3,2.6-0.6l0.3-0.1c3.9-0.8,10.3-2.1,14.6-2.3c3.2-0.2,7.7,0.1,9.1,0.3c-2.6,0.6-5.3,1.5-8.1,2.5
		c-0.1,0-0.2,0.1-0.2,0.1l0,0C31.3,33,31.1,33,31.1,33s-0.6,0.2-1.5,0.6l-0.3,0.1c-1.7,0.7-4.2,1.7-4.7,1.9
		c-0.9,0.4-1.9,0.8-1.9,0.8l0,0c-0.1,0-0.2,0-0.3,0.1c-0.5,0.2-1.1,0.6-1.2,1.2c0,0.1,0,0.3,0,0.5s0,0.3,0,0.5
		C21.3,38.6,21.3,38.6,21.4,38.7 M56.3,40.6c0.5-0.2,2.8-1.2,4.6-1.6c0.8-0.2,1.9-0.4,3.1-0.8c2.3-0.6,5.5-1.4,9.1-2.1
		c1-0.2,2.1-0.3,2.3-0.3c0.3,0.2,5.7,4.1,8.5,6.1c0.2,0.2,0.8,0.6,0.7,0.9c-0.1,0.3-1.9,2-6.6,3.1c-4.3,1-11.3,2.4-13.2,1.9
		c-1.8-0.5-4.4-3.4-4.5-3.5L56.3,40.6z M53.4,47c-1.1-0.3-8.8-2.5-16.2-4.6c0.2-0.4,1.4-2.7,2.4-4.1c1.1-1.6,2.4-3.4,2.4-3.4l0,0
		c2.7,0.8,5.2,2.1,7.5,3.7c3.3,2.4,5.8,5,5.8,6.2c0,0.9-1.4,2.2-1.7,2.3C53.5,47.1,53.5,47.1,53.4,47L53.4,47L53.4,47z M37,42.4
		c-5-1.4-9.8-2.8-12.4-3.5h-0.1c0-0.2,0.1-0.5,0.1-0.8c0-0.5,0.1-0.8,0-1.1l0.1-0.1c2.5-1.2,7.1-3.2,10.6-3.2c0.3,0,0.5,0,0.7,0
		c1.9,0.2,3.8,0.5,5.6,1.1c-0.2,0.2-1.4,1.9-2.4,3.4C38.5,39.7,37.2,42,37,42.4z M21.4,37.6c0.1-0.6,0.7-1,1.1-1.1
		c0.2-0.1,0.6-0.1,1.6,0c-0.4,0.3-0.8,0.9-1,1.3c-0.4,0.7-0.5,1.7-0.4,2.1c-0.2-0.1-0.6-0.2-0.8-0.4C21.5,39.3,21.4,38.2,21.4,37.6z
		 M22.8,39.7C22.8,39.6,22.8,39.6,22.8,39.7C22.8,39.6,22.8,39.6,22.8,39.7v-0.2c0,0,0,0,0-0.1v-0.1c0,0,0,0,0-0.1v-0.1
		c0,0,0,0,0-0.1v-0.1c0,0,0,0,0-0.1v-0.1c0,0,0,0,0-0.1v-0.1c0,0,0,0,0-0.1v-0.1c0,0,0,0,0-0.1v-0.1V38v-0.1v-0.1c0,0,0,0,0-0.1
		s0-0.1,0.1-0.1c0-0.1,0.1-0.1,0.1-0.2v-0.1c0,0,0,0,0-0.1c0,0,0-0.1,0.1-0.1l0,0c0.4-0.6,0.7-0.9,0.9-0.9l0,0h0.1
		c0,0,0.2,0.1,0,1.5c-0.1,0.7-0.1,1.1-0.2,1.2c0,0,0,0.1-0.1,0.1c0,0,0,0,0-0.1c0.1-0.1,0.1-0.4,0.2-1.1v-0.1c0.1-1.4,0.1-1.4,0-1.5
		c-0.3-0.1-0.9,0.7-1.3,1.3c-0.3,0.6-0.4,1.7-0.3,1.9c0,0,0,0.1,0.1,0.1h0.1l0,0c-0.1,0-0.3,0-0.3,0l0,0l0,0l0,0l0,0l0,0l0,0l0,0
		C22.8,39.7,22.8,39.7,22.8,39.7L22.8,39.7z M24.2,39.1c-0.1,0.1-0.4,0.4-0.6,0.5c-0.2,0.2-0.5,0.2-0.6,0.2c-0.1-0.1,0-1.1,0.3-1.8
		c0.4-0.7,0.9-1.2,1.1-1.3c0,0.2,0,1-0.1,1.3v0.1C24.3,38.7,24.2,39,24.2,39.1z M62.2,30.1C62.2,30,62.2,30,62.2,30.1
		c-3.7-1.1-7.2-1.6-10.5-1.6c-0.1,0-0.2,0-0.3,0h-0.1c-2.1,0.2-3.5,0.5-6.1,1.1c-2.2,0.5-5.9,1.7-6,1.7c0,0-0.1,0,0,0.1l0,0
		c0,0,0,0.1,0.1,0.1c2.2,0,4.4,0.4,6.4,1.1c0.7,0.2,1.2,0.4,1.9,0.7l0.2,0.1l0,0l0,0c0,0,3.3-1.1,6.6-1.9
		C57.5,30.8,62.1,30.1,62.2,30.1L62.2,30.1z M61.8,30c-1.1,0.2-4.8,0.7-7.4,1.4c-3.1,0.7-6.2,1.8-6.6,1.9l-0.2-0.1
		c-0.7-0.3-1.2-0.5-1.9-0.7c-2-0.6-4-1-6.1-1.1c0.9-0.3,3.8-1.2,5.7-1.6c2.5-0.6,4-0.9,6.1-1.1h0.1c0.1,0,0.2,0,0.3,0
		C54.9,28.6,58.3,29,61.8,30z M85.7,60.5l-4.2,1.3c0,0-0.3,0.1-0.4,0.2C81,62.2,81,62.4,81,62.4l0.3,1.8c0,0,0,0.3,0.2,0.4
		c0.1,0,0.1,0,0.2,0s0.2,0,0.2,0l8.3-2.7c0,0,0.1,0,0.2-0.1s0-0.3,0-0.3l-0.2-1.9c0,0,0-0.2-0.2-0.3s-0.3,0-0.3,0l-3.8,1.2
		 M85.9,63.1L85.9,63.1l-4.1,1.3l0,0c0,0-0.1,0-0.2,0s-0.1-0.2-0.1-0.3l-0.3-1.8c0,0,0-0.2,0-0.3c0.1-0.1,0.3-0.2,0.3-0.2l4.3-1.3
		l3.9-1.2c0,0,0.1-0.1,0.2,0l0,0c0.1,0,0.1,0.2,0.1,0.2l0.2,1.9c0,0.1,0,0.2,0,0.2l-0.1,0.1L85.9,63.1z"/>
	<path d="M49.9,50.3h0.2c-0.1,0.1-0.2,0.2-0.2,0.2c-0.1,0.1-0.2,0.1-0.3,0.3c-0.1,0-0.1,0-0.2,0c0.2-0.1,0.3-0.3,0.4-0.3
		C49.8,50.4,49.8,50.3,49.9,50.3z"/>
	<path d="M34.4,45.7L34.4,45.7c0,0.2,0,0.6,0,0.8c0,0.1,0,0.1-0.1,0.3h-0.1c0.1-0.1,0.1-0.2,0.1-0.3C34.3,46.5,34.3,45.9,34.4,45.7z
		"/>
	<path class="st1" d="M22.8,39.5L22.8,39.5C22.8,39.4,22.8,39.4,22.8,39.5v-0.2c0,0,0,0,0-0.1v-0.1c0,0,0,0,0-0.1v-0.1
		c0,0,0,0,0-0.1v-0.1c0,0,0,0,0-0.1v-0.1c0,0,0,0,0-0.1v-0.1c0,0,0,0,0-0.1v-0.1V38v-0.1v-0.1c0,0,0,0,0-0.1s0-0.1,0.1-0.1
		c0-0.1,0.1-0.1,0.1-0.2v-0.1c0,0,0,0,0-0.1c0,0,0-0.1,0.1-0.1l0,0c0.4-0.6,0.7-0.9,0.9-0.9l0,0h0.1c0,0,0.2,0.1,0,1.5
		c-0.1,0.7-0.1,1.1-0.2,1.2c0,0,0,0.1-0.1,0.1c0,0,0,0,0-0.1c0.1-0.1,0.1-0.4,0.2-1.1v-0.1c0.1-1.4,0.1-1.4,0-1.5
		c-0.3-0.1-0.9,0.7-1.3,1.3c-0.3,0.6-0.4,1.7-0.3,1.9c0,0,0,0.1,0.1,0.1h0.1l0,0c-0.1,0-0.3,0-0.3,0l0,0l0,0l0,0l0,0l0,0l0,0l0,0
		c0,0,0,0,0-0.1l0,0C22.8,39.6,22.8,39.6,22.8,39.5C22.8,39.6,22.8,39.6,22.8,39.5z"/>
	<path d="M5.7,38c0.1-0.5,0.4-1.4,0.9-1.9c0.4-0.4,1.2-0.7,1.8-0.9L8.3,35c-0.6,0.2-1.5,0.5-1.9,1c-0.5,0.5-0.8,1.4-0.9,2H5.7z"/>
	<path class="st9" d="M50,50.3l2.9,0.9v0.1l0,0H53l0,0l9.1,2.7c0,0-5.8-1.4-12.6-3.1c0.1-0.1,0.2-0.2,0.3-0.3
		C49.9,50.5,50,50.4,50,50.3z"/>
	<path class="st9" d="M34.5,45.7l15.3,4.6c-0.1,0.1-0.1,0.1-0.2,0.2c-0.1,0.1-0.2,0.2-0.4,0.3c-5.1-1.3-10.7-2.7-15.1-4
		c0.1-0.1,0.1-0.2,0.1-0.3C34.4,46.3,34.5,45.9,34.5,45.7z"/>
	<path class="st9" d="M19.2,41.1l15.3,4.5c-0.1,0.2-0.2,0.8-0.2,0.8s-0.1,0.1-0.1,0.3c-0.9-0.3-1.8-0.5-2.6-0.8
		c-9.4-2.8-15.4-5.1-15.4-5.1s-3.9-2.2-0.5-0.9l3.4,1L19.2,41.1z"/>
	<path class="st9" d="M18.9,38c-0.8-0.2-1.5-0.5-2.2-0.8l-3.6-1.5c0.1,0,3.5,1,8.2,2.3c0,0.2,0,0.3,0,0.5"/>
</g>
</svg>
