<?xml version="1.0" encoding="utf-8"?>
<!-- Generator: Adobe Illustrator 22.1.0, SVG Export Plug-In . SVG Version: 6.00 Build 0)  -->
<svg version="1.1" id="Layer_1" xmlns="http://www.w3.org/2000/svg" xmlns:xlink="http://www.w3.org/1999/xlink" x="0px" y="0px"
	 width="100px" height="100px" viewBox="0 0 100 100" style="enable-background:new 0 0 100 100;" xml:space="preserve">
<style type="text/css">
	.st0{fill:#F2F2F2;}
	.st1{fill:#D5D7D8;}
	.st2{fill:#B3B3B3;}
	.st3{fill:none;stroke:#000000;stroke-miterlimit:10;}
	.st4{fill:#3A3A3A;}
	.st5{fill:#FFFFFF;}
	.st6{fill:#9E005D;}
	.st7{opacity:0.5;}
	.st8{opacity:0.3;fill:#3A3A3A;enable-background:new    ;}
	.st9{opacity:0.6;fill:#3A3A3A;enable-background:new    ;}
	.st10{opacity:0.4;fill:#3A3A3A;enable-background:new    ;}
	.st11{opacity:0.4;}
	.st12{opacity:0.2;enable-background:new    ;}
	.st13{fill:none;}
</style>
<g id="base_x5F_paint_1_">
	<path class="st0" d="M1.2,41.8c0.2-0.9,1.4-2.8,1.6-3.4c0.2-0.6,0-1.5,0.8-2.5c0.8-0.9,4-4.1,10.8-4.9s8.5-0.5,8.5-0.5
		S32,27.2,42.4,28c10.4,0.9,18.1,5,20,6.1c1,0.5,3.4,2,5.7,3.4c0.4,0.2,0.8,0.5,1.2,0.7c0.4,0.3,0.8,0.5,1.1,0.7
		c1.2,0.7,2,1.3,2,1.3S80,42.9,82.8,44c2.7,1.1,8.8,3.4,11.5,5.3c2.7,2,3.7,4.8,3.8,5.1c0.1,0.3,0.7,0.7,0.8,1.3
		c0,0.6-0.2,2.3-0.4,3.3c-0.3,1-0.7,2.1-0.7,2.1s0.6,1.3,0.5,2.1s-0.2,3.1-8.1,5.9c-8.6,3.1-15.4,3.3-18.9,3c-0.1,0-0.1,0-0.2,0
		c-0.1-0.2-0.3-0.4-0.4-0.6c-1.1-2.1,0.1-5.2-3.2-10c-3.4-4.9-9-4.8-11.2-1.5s-0.6,7.6-0.5,7.7c0.1,0.2,0.1,0.2,0.2,0.3h0.1
		c-0.1,0.1-0.2,0.1-0.3,0.1c-0.4,0-4.5-1.3-5.9-1.7s-26.3-7.5-28.2-8c-1.9-0.4-2.3-0.4-2.5-0.5c-0.3-0.1-0.6-1.3-0.8-2.3
		c-0.1-1-1-6.9-4.9-9.5S7,46.5,6.7,48.5c-0.3,2.6,0.4,4,0.4,4s0.1,0.3,0,0.3s-3.3-2.3-3.9-3.3C2.4,48.2,1,42.7,1.2,41.8z"/>
	<path class="st1" d="M48.9,48.1c0,0-2.5-3.9-5.2-7.1c-3.4-4-7.6-6-14.6-6.9c-1.5-0.2-3.1-0.3-4.5-0.3c-5.4,0-8.5,1.4-9,2
		c-0.7,0.7-0.2,2.6-0.2,2.7v0.1h0.1c0.3,0.1,32.6,9.7,33.3,9.9l0.5,0.2L48.9,48.1z"/>
	<path class="st1" d="M23.4,30.3c0,0-0.5,0.2-0.6,0.3c-0.4,0.2-1.5,0.7-2.1,1c-1.1,0.6-1.6,1-1.6,1c-4.8,0.9-8.1,2.3-8.1,2.3
		s-0.9,0.2-0.4-0.2c0.2-0.1,0.6-0.3,0.6-0.3S14.6,32.7,23.4,30.3z"/>
	<path class="st1" d="M59.3,32.6c1.5,0.7,2.5,1.2,3.1,1.5c1.9,1,9.9,6.1,9.9,6.1s0.5,0.4,0.6,0.8c0,0.3-1.1,2.2-9.3,4.5
		s-10.7,2.4-12.2,1.7c-1.6-0.6-3.3-3.7-4.7-5.4S43,37.5,43,37.5s0-0.1,0.1-0.2c0.1-0.1,6.8-2.3,9.3-3.1s5.8-1.6,6.2-1.7
		C59,32.6,59.3,32.6,59.3,32.6"/>
	<path class="st2" d="M12.4,45.4c-0.1,0-0.2-0.1-0.3-0.1C12.3,45.3,12.4,45.3,12.4,45.4z"/>
	<path d="M12.4,45.4l0.1-0.1c-0.1,0-0.2-0.1-0.3-0.1l-0.1,0.1l0,0l0,0l0,0C12.2,45.3,12.3,45.4,12.4,45.4z"/>
	<path class="st2" d="M12.7,45.5c-0.1,0-0.2-0.1-0.2-0.1C12.6,45.4,12.7,45.5,12.7,45.5z"/>
	<path d="M12.7,45.6l0.1-0.1c0,0-0.1,0-0.1-0.1c0,0-0.1,0-0.1-0.1l-0.1,0.1l0,0l0,0l0,0c0,0,0.1,0,0.1,0.1
		C12.6,45.5,12.7,45.5,12.7,45.6z"/>
	<path class="st2" d="M14,46.3L14,46.3c-0.1-0.1-0.2-0.2-0.3-0.2C13.8,46.2,13.9,46.2,14,46.3z"/>
	<path d="M13.9,46.4l0.1-0.1l0,0c-0.1-0.1-0.2-0.1-0.3-0.2l0,0l0,0l-0.1,0.1l0,0l0,0l0,0C13.7,46.2,13.8,46.3,13.9,46.4L13.9,46.4z"
		/>
	<path class="st2" d="M13,45.7c-0.1,0-0.1-0.1-0.2-0.1C12.9,45.6,13,45.6,13,45.7z"/>
	<path d="M13,45.7l0.1-0.1c0,0-0.1,0-0.1-0.1c0,0,0,0-0.1,0l0,0l-0.1,0.1l0,0C12.9,45.7,12.9,45.7,13,45.7
		C12.9,45.7,13,45.7,13,45.7z"/>
	<path class="st2" d="M7,52.3c0,0-0.7-1.4-0.4-4c0.2-1.8,2.3-4.4,5.6-3.1c-0.5,0.1-1.3,0.3-1.9,0.5c-0.7,0.2-1.1,0.6-1.2,0.7
		c-1.2,0.9-2,2.7-1.9,5c0,0.3,0,0.7,0.1,1L7,52.6C7.1,52.6,7,52.3,7,52.3z"/>
	<path d="M6.9,52.5L6.9,52.5c0,0,0-0.1,0-0.2l0,0c0-0.1-0.7-1.5-0.4-4.1c0.1-0.9,0.8-2.3,2.1-3c0.7-0.4,2-0.8,3.6-0.1v0.1
		c-0.5,0.1-1.3,0.3-1.9,0.5c-0.7,0.2-1.1,0.6-1.2,0.7c-1.3,0.9-1.9,2.8-1.8,4.9c0,0.3,0,0.7,0.1,1v0.1L7,52.7c0,0,0,0-0.1,0V52.5z
		 M7.1,51.4c-0.1-2.2,0.6-4.1,1.9-5c0.1-0.1,0.5-0.5,1.2-0.7c0.5-0.2,1.2-0.3,1.7-0.4c-1.5-0.5-2.6-0.2-3.3,0.2
		c-1.2,0.7-1.9,2-2,2.9c-0.3,2.5,0.3,4,0.3,4s0,0.1,0.1,0.2l0.1-0.1C7.2,52.1,7.1,51.7,7.1,51.4z"/>
	<path class="st4" d="M9.1,46.4c0.1-0.1,0.5-0.5,1.2-0.7c0.6-0.2,1.4-0.4,1.9-0.5c0.4,0.2,0.8,0.4,1.2,0.6c3.9,2.6,4.8,8.6,4.9,9.5
		c0.1,0.7,0.3,1.4,0.5,1.9v0.1c0,0-2.8,1.5-3.4,1.7c-0.6,0.2-1.5,0.4-2.1,0.3c-0.6-0.1-0.8-0.2-0.8-0.2c-2.7-0.5-5.1-4-5.3-7.8
		C7.1,49.1,7.9,47.3,9.1,46.4z"/>
	<path d="M13.2,59.5c-0.5-0.1-0.7-0.1-0.8-0.2c-2.8-0.6-5.2-4.1-5.4-7.9c-0.1-2.2,0.6-4.2,1.9-5.1c0.1-0.1,0.5-0.5,1.2-0.7
		c0.6-0.2,1.5-0.4,1.9-0.5l0,0l0,0c0.4,0.2,0.8,0.4,1.2,0.7c3.9,2.6,4.8,8.5,5,9.6c0.1,0.7,0.3,1.4,0.5,1.8v0.1v0.2h-0.1
		c-0.1,0.1-2.8,1.5-3.4,1.7C14.7,59.4,14,59.5,13.2,59.5C13.5,59.5,13.4,59.5,13.2,59.5z M18.1,55.4c-0.2-1.1-1.1-6.9-4.9-9.4
		c-0.4-0.2-0.7-0.5-1.1-0.6c-0.5,0.1-1.3,0.3-1.9,0.5c-0.7,0.2-1,0.6-1.1,0.7l0,0c-1.2,0.9-1.9,2.7-1.8,4.9c0.2,3.7,2.5,7.1,5.2,7.6
		l0,0c0,0,0.2,0.1,0.7,0.1c0.6,0.1,1.5-0.1,2.1-0.3c0.5-0.2,2.8-1.4,3.3-1.6C18.4,56.8,18.2,56.1,18.1,55.4z"/>
	<path class="st1" d="M15.9,53.7c0,2.7-1.6,4.6-3.6,4.2c-2.2-0.4-4.1-3.2-4.2-6.2c-0.1-3.1,1.7-5.1,4-4.4
		C14.2,48,15.9,50.9,15.9,53.7z"/>
	<path d="M12.2,57.9C10,57.5,8,54.6,7.9,51.6c-0.1-1.8,0.5-3.3,1.5-4.1c0.7-0.6,1.7-0.7,2.6-0.4c2.2,0.7,3.9,3.6,3.9,6.5
		c0,1.6-0.5,2.9-1.4,3.7C14,57.8,13.4,58,12.8,58C12.6,58,12.4,58,12.2,57.9z M9.5,47.7c-1,0.7-1.5,2.2-1.4,3.9c0.1,3,2,5.7,4.2,6.2
		c0.8,0.2,1.5,0,2.2-0.5c0.9-0.7,1.4-2,1.4-3.6l0,0c0-2.8-1.7-5.7-3.8-6.4c-0.3-0.1-0.6-0.2-0.9-0.2C10.5,47.2,10,47.4,9.5,47.7z"/>
	<path d="M12.5,59.3c-2.8-0.5-5.2-4.1-5.3-7.8c-0.1-2.2,0.6-4.1,1.9-5c0.9-0.7,2.1-0.9,3.2-0.5c2.7,0.9,4.9,4.5,4.9,8.1l0,0
		c0,2-0.6,3.6-1.8,4.6c-0.6,0.5-1.3,0.8-2.1,0.8C12.9,59.3,12.7,59.3,12.5,59.3z M16.9,54c0-3.5-2.1-7.1-4.8-7.9
		C11,45.7,9.9,45.9,9,46.5c-1.2,0.9-1.9,2.8-1.8,4.9c0.2,3.7,2.5,7.2,5.2,7.7c1,0.2,1.9,0,2.7-0.7C16.3,57.5,16.9,55.9,16.9,54
		L16.9,54L16.9,54z"/>
	<path d="M12.7,53.5c-0.5-0.1-0.9-0.7-1-1.4c0-0.4,0.1-0.7,0.3-0.9c0.2-0.1,0.4-0.2,0.6-0.1c0.5,0.2,0.9,0.8,0.9,1.4
		c0,0.3-0.1,0.6-0.3,0.8c-0.1,0.1-0.3,0.1-0.4,0.1C12.8,53.6,12.7,53.6,12.7,53.5z M12.2,51.4c-0.2,0.1-0.3,0.4-0.3,0.8
		c0,0.6,0.4,1.2,0.8,1.2c0.2,0,0.3,0,0.4-0.1c0.2-0.1,0.3-0.4,0.3-0.7l0,0c0-0.6-0.3-1.1-0.8-1.3c-0.1,0-0.1,0-0.2,0
		C12.3,51.3,12.2,51.3,12.2,51.4z"/>
	<path class="st4" d="M58.9,59c0.3-0.2,0.8-0.4,1.2-0.5s1.8-0.4,2.8-0.6c1.6,0.5,3.2,1.6,4.4,3.5c3,4.4,2.3,7.4,3,9.5
		c-0.1,0.2-0.2,0.3-0.3,0.4c-0.3,0.3-2.5,1.8-3,2c-1.6,0.8-3.5,0.7-3.5,0.7c-0.7,0-1.4-0.2-2.1-0.5c-3.1-1.4-5.4-5.4-5.3-9.2
		C56.4,61.9,57.4,59.9,58.9,59z"/>
	<path d="M63.7,74.1L63.7,74.1c-0.7,0-1.4-0.2-2.1-0.5c-3.2-1.4-5.5-5.5-5.4-9.3c0.1-2.4,1.1-4.5,2.7-5.4c0.3-0.2,0.6-0.4,1.2-0.6
		c0.4-0.1,1.8-0.4,2.9-0.6l0,0l0,0c1.8,0.6,3.3,1.8,4.5,3.5c2.1,3.1,2.4,5.5,2.6,7.4c0.1,0.8,0.2,1.5,0.4,2.1v0.1v0.1
		c-0.1,0.2-0.2,0.4-0.3,0.5c-0.3,0.3-2.6,1.8-3,2c-1.2,0.6-2.7,0.7-3.3,0.7C63.8,74.1,63.7,74.1,63.7,74.1z M69.9,68.7
		c-0.2-1.9-0.5-4.2-2.6-7.3c-1.2-1.7-2.7-2.9-4.3-3.4c-1.5,0.3-2.5,0.5-2.8,0.6c-0.5,0.2-0.9,0.4-1.1,0.5l0,0
		c-1.5,0.9-2.5,2.9-2.6,5.2c-0.1,3.7,2.2,7.7,5.2,9c0.7,0.3,1.4,0.4,2,0.5l0,0l0,0c0.3,0,1.9,0,3.4-0.7c0.5-0.2,2.7-1.7,2.9-2
		c0,0,0.1-0.1,0.2-0.3C70,70.2,70,69.5,69.9,68.7z"/>
	<path class="st2" d="M56.2,59.8c1.4-2,4.1-2.8,6.8-2c-1,0.2-2.5,0.4-2.8,0.6c-0.4,0.1-0.9,0.3-1.2,0.5c-1.6,0.9-2.6,2.9-2.7,5.3
		c0,1.1,0.1,2.2,0.5,3.3L56,67.8l-0.2,0.1l-0.1-0.3C55.6,67.4,53.9,63.1,56.2,59.8z"/>
	<path d="M55.8,67.9L55.8,67.9c-0.1-0.2-0.1-0.3-0.1-0.3c-0.2-0.4-1.7-4.7,0.5-7.8l0,0c1.4-2.1,4.2-2.9,6.9-2v0.1
		c-1.5,0.3-2.6,0.5-2.8,0.6c-0.6,0.2-0.9,0.4-1.2,0.5c-1.6,0.9-2.5,2.9-2.6,5.3c0,1.1,0.1,2.2,0.5,3.3v0.1l-0.7,0.2l0,0l0,0
		c0,0,0,0-0.1,0C55.9,67.9,55.9,67.9,55.8,67.9L55.8,67.9z M56.6,67.5c-0.3-1.1-0.5-2.2-0.4-3.3c0.1-2.4,1.1-4.4,2.7-5.4
		c0.2-0.2,0.6-0.4,1.2-0.6c0.3-0.1,1.5-0.3,2.5-0.5c-2.5-0.7-5.1,0.1-6.4,2l0,0c-2.3,3.3-0.5,7.6-0.5,7.7c0,0,0,0,0.1,0.3h0.1H56
		L56.6,67.5z"/>
	<path d="M12.7,53c-0.3-0.1-0.5-0.4-0.5-0.7c0-0.2,0.1-0.4,0.2-0.5c0.1-0.1,0.2-0.1,0.3-0.1c0.3,0.1,0.5,0.4,0.5,0.8
		c0,0.2-0.1,0.4-0.2,0.4C13,53,12.9,53,12.7,53C12.8,53,12.8,53,12.7,53z M12.5,51.9c-0.1,0.1-0.1,0.2-0.1,0.4
		c0,0.3,0.2,0.6,0.4,0.6c0.1,0,0.1,0,0.2,0c0.1-0.1,0.1-0.2,0.1-0.3l0,0c0-0.3-0.2-0.6-0.4-0.6h-0.1C12.6,51.8,12.5,51.9,12.5,51.9z
		"/>
	<path class="st1" d="M67.3,68.3c-0.4,3.3-3,4.8-5.7,3.7c-2.5-1.1-4.4-4.3-4.2-7.4c0.1-3.3,2.4-5.4,5.2-4.5
		C65.6,61,67.7,64.8,67.3,68.3z"/>
	<path d="M61.6,72.1c-2.5-1.1-4.4-4.3-4.3-7.4c0.1-1.8,0.8-3.3,1.9-4.1c0.9-0.7,2.1-0.9,3.4-0.5c3.1,0.9,5.2,4.7,4.8,8.3
		c-0.2,1.7-1,3-2.2,3.7c-0.6,0.3-1.2,0.5-1.8,0.5C62.8,72.5,62.2,72.3,61.6,72.1z M62.5,60.2c-1.2-0.4-2.3-0.2-3.2,0.5
		c-1.1,0.8-1.8,2.3-1.9,4c-0.1,3,1.7,6.2,4.2,7.3c1.2,0.5,2.4,0.5,3.5-0.1c1.2-0.7,1.9-1.9,2.1-3.6C67.7,64.8,65.5,61,62.5,60.2z"/>
	<path d="M62.6,67.3c-0.6-0.3-1-1-1-1.7c0-0.4,0.2-0.8,0.5-1c0.2-0.2,0.5-0.2,0.8-0.1c0.7,0.2,1.2,1.1,1.1,1.9l0,0
		c-0.1,0.4-0.2,0.7-0.5,0.9c-0.1,0.1-0.3,0.1-0.4,0.1C62.8,67.4,62.7,67.4,62.6,67.3z M63.8,66.4c0.1-0.8-0.4-1.6-1-1.8
		c-0.3-0.1-0.5,0-0.7,0.1c-0.2,0.2-0.4,0.5-0.4,0.9c0,0.7,0.4,1.4,0.9,1.6c0.3,0.1,0.5,0.1,0.7,0C63.6,67,63.8,66.8,63.8,66.4
		L63.8,66.4z"/>
	<path d="M62.8,66.7c-0.3-0.1-0.5-0.5-0.5-0.9c0-0.2,0.1-0.4,0.3-0.5c0.1-0.1,0.3-0.1,0.4-0.1c0.4,0.1,0.7,0.6,0.6,1
		c0,0.2-0.1,0.4-0.3,0.5c-0.1,0-0.2,0.1-0.2,0.1C62.9,66.7,62.9,66.7,62.8,66.7z M62.6,65.3c-0.1,0.1-0.2,0.2-0.2,0.4
		c0,0.3,0.2,0.7,0.4,0.8c0.1,0.1,0.2,0,0.3,0c0.1-0.1,0.2-0.2,0.2-0.4l0,0c0-0.4-0.2-0.8-0.5-0.9h-0.1
		C62.7,65.3,62.6,65.3,62.6,65.3z"/>
	<path class="st1" d="M35.3,32.6c0,0,3.8-1.3,6.9-2.2c2-0.5,4.3-1,4.8-1.1c0.1,0,0.1,0,0.2,0c2.9,0.5,5.5,1.3,7.7,2.1l0,0
		c-1,0.2-3.7,0.9-5.8,1.6c-1.6,0.5-4.8,1.5-7.1,2.3c-0.2,0.1-0.3,0-0.5,0C40.9,34.8,38.6,33.4,35.3,32.6"/>
	<path class="st5" d="M84.8,62c-0.1-0.3-1.2-1.9-2.7-2.4c-1.3-0.5-5.9-1.2-6.9-1.2c-1.2,0-2.2,0.3-2.4,0.5c-0.3,0.3-0.1,1.1,1.7,2.5
		s4.5,1.4,6.3,1.3C82.5,62.6,85,62.4,84.8,62z"/>
	<path class="st5" d="M95,49.9c0,0,1.1,1.7,1.5,3c0.3,1,0.8,2.1,1,3c0,0,0.6-1.2,0.4-1.9c-0.1-0.3-0.2-0.7-0.5-1.1
		c-0.3-0.7-0.8-1.3-0.8-1.3l-0.2-0.3c-0.4-0.5-0.8-0.9-1.3-1.3L95,49.9z"/>
	<path class="st4" d="M87.1,60.8c0.2,0.7,0.7,1.5,1.2,1.7c1.2,0.5,3,0,5.2-0.9c2.1-0.9,2.7-1.7,3-2.1c0.6-0.8,1-2.4,0.8-3.3
		c-0.2-0.8-1.4,0.4-2.7,1.2c-1.4,0.8-1.9,1-3.4,1.4C88.7,59.4,86.6,59.2,87.1,60.8z"/>
	<path class="st4" d="M97.7,60.9c0,0-0.1,0.3-0.5,0.8l0,0c-0.8,0.9-2.6,2.5-7.1,4C83,68,78.6,68.1,78.4,68.2c-0.3,0-0.5,0-0.8,0.3
		s-0.5,0.6-0.5,0.8c-0.1,0.2-0.1,0.5,0,0.7c0.2,0.2,7.2,0,13.3-2.4c6.1-2.4,6.9-4.8,6.9-5c0-0.1,0-0.5,0-0.9"/>
	<path class="st6" d="M2.1,39.8c0.3-0.6,0.6-1.2,0.7-1.5C3,37.7,2.9,36.9,3.4,36h0.1l1.2,0.5c0,0,0.2,1.4-0.1,2.1
		C4.3,39.3,3.1,40,2.8,40C2.5,40.1,2.2,39.9,2.1,39.8z"/>
	<g id="Interior_1_" class="st7">
		<path class="st8" d="M29,34l-4.6,1.5l-0.2-0.3c-0.1-0.4-0.5-0.7-0.9-0.8c-0.1,0-0.3,0-0.4,0s-0.3,0-0.4,0.1l-3,0.9
			c-0.6,0.2-1,0.8-0.8,1.5l0.1,0.4l-3.5,1.2l0,0c0.3,0.1,32.6,9.7,33.3,9.9l0.5,0.2l-0.3-0.5c0,0-2.5-3.9-5.2-7.1
			c-1.6-2-3.4-3.4-5.6-4.5h-0.1l-2.7-1.2c-1.8-0.6-3.5-1-5.8-1.3C29.2,34,29.1,34,29,34z"/>
		<path class="st8" d="M72.9,41c0-0.3-0.6-0.8-0.6-0.8l0,0l0,0c0,0,0.1,0,0.3,0.1l-1-0.6L50.3,35c-3,1-7.1,2.3-7.1,2.4
			c0,0.1-0.1,0.1-0.1,0.2l0,0c0,0,2.3,2.6,3.7,4.3c0.1,0.1,0.1,0.1,0.2,0.2c1,1.3,2.2,3.3,3.4,4.4c0,0.1,0.1,0.1,0.1,0.2
			c0-0.1-0.1-0.1-0.1-0.2c0.4,0.4,0.7,0.6,1.1,0.8c1.6,0.6,4,0.6,12.2-1.7c0.7-0.2,1.4-0.4,2-0.6l0.1,0.1c0,0,0-0.1,0.1-0.1
			C72.1,42.8,73,41.3,72.9,41z"/>
		<polygon class="st8" points="36.5,32.1 35.3,32.6 36.8,33 38.7,33.8 40.1,34.3 41.5,35 41.9,35.3 42.6,35.1 44.7,34.5 45.9,34 		
			"/>
		<path class="st9" d="M72.8,40.7l-0.5-0.3c0,0-5.4-0.3-10.4,1.5c-1.4,0.5-3,1.2-4.5,1.9c-0.4-0.6-1-1-1.7-1.1
			C54,42.6,52.1,44,51.5,46c-0.1,0.3-0.2,0.7-0.2,1c-0.1,0-0.1,0.1-0.1,0.1h0.1l0,0l0,0l0.7,0.3l2.1,0.2l1.7-0.3l2.4-0.5l3.4-0.8
			l2.5-0.7l2.6-0.7l2.6-1l1.9-1.1l1.2-0.8l0.4-0.6V40.7z M52.2,46.5c0-0.1,0-0.1,0.1-0.2c0.5-1.5,1.9-2.7,3.2-2.7c0.1,0,0.1,0,0.2,0
			c0.5,0,0.8,0.2,1,0.6l0,0C54.9,45.1,53.2,45.9,52.2,46.5z"/>
		<path class="st10" d="M43.8,44.5c-0.1-0.3-0.2-0.5-0.4-0.8c-0.5-0.6-1.4-2-1.7-2.9c-0.2-0.5-0.4-1.6-0.7-2.5
			c-0.8-0.6-1.6-1.2-2.5-1.6l-1.3,0.5c-0.4,0.2-0.6,0.5-0.8,0.9C36.3,38.8,36,41,36,42c0,0.8,0.1,1.8,0.3,2.6c3.2,1,6.2,1.9,8.5,2.5
			L43.8,44.5z"/>
		<g class="st11">
			<path class="st4" d="M51.3,47.2L51.3,47.2L51.3,47.2c-0.1-0.1-0.1-0.1,0-0.2c0-0.3,0.1-0.7,0.2-1c0.4-1.1,1.1-2.1,2.1-2.7
				L53,41.7c-0.1-0.3-0.2-0.5-0.4-0.8c-0.5-0.6-1.4-2-1.7-2.9c-0.2-0.6-0.5-2-0.8-3c-1.5,0.5-3.2,1-4.6,1.5c-0.1,0.9-0.2,2-0.2,2.7
				c0,0.2,0,0.5,0,0.7c0.6,0.6,1.1,1.3,1.6,1.8c0.1,0.1,0.1,0.1,0.2,0.2c1,1.3,2.2,3.3,3.4,4.4C50.5,46.7,50.8,46.8,51.3,47.2
				l0.6,0.2L51.3,47.2L51.3,47.2z"/>
			<path class="st4" d="M52.3,46.3c0,0.1,0,0.1-0.1,0.2c0.5-0.3,1.2-0.7,2.1-1.1l-0.4-1.3C53.1,44.6,52.5,45.4,52.3,46.3z"/>
		</g>
	</g>
	<path class="st0" d="M68.1,37.5c0,0-0.1-0.3,0-0.6c0-0.2,0.1-0.5,0.4-0.6c0.2-0.1,1.3-0.1,1.7,1.2c0.3,0.9,0.3,1.4,0.3,1.4
		L68.1,37.5z"/>
</g>
<g id="outlines_1_">
	<path d="M71.2,72.1c-0.1,0-0.2,0-0.3,0h-0.1V72c-0.2-0.3-0.3-0.5-0.4-0.6c-0.4-0.8-0.5-1.7-0.6-2.7c-0.2-1.9-0.5-4.2-2.6-7.3
		c-1.6-2.4-4-3.8-6.5-3.8l0,0c-1.9,0-3.5,0.8-4.5,2.3c-2.2,3.3-0.5,7.5-0.5,7.6s0.1,0.1,0.1,0.2l0,0c0.1,0,0.2,0,0.2,0.1l0.1,0.1
		L56,68c-0.1,0-0.2,0-0.3,0c-0.3,0-2.2-0.6-4.6-1.4c-0.5-0.2-1-0.3-1.3-0.4c-1.5-0.5-26.4-7.5-28.2-7.9c-1-0.2-1.6-0.3-1.9-0.4
		c-0.3-0.1-0.5-0.1-0.6-0.1c-0.4-0.2-0.8-1.7-0.9-2.4c-0.2-1.1-1.1-6.9-4.9-9.4c-1.9-1.3-3.4-1.1-4.3-0.7c-1.3,0.6-2.1,2-2.3,3
		C6.4,50.8,7,52.2,7,52.2c0,0.1,0.1,0.2,0,0.4c0,0.1-0.1,0.1-0.1,0.1c-0.2,0-1.5-1-1.9-1.3c-0.6-0.4-1.7-1.4-2.1-2
		c-0.6-1-2.1-6.6-1.9-7.6c0.1-0.6,0.7-1.6,1.1-2.4c0.2-0.5,0.5-0.9,0.5-1.1c0.1-0.2,0.1-0.4,0.1-0.6c0.1-0.5,0.2-1.2,0.7-1.9
		c0.6-0.7,3.7-4.1,10.9-4.9c6.2-0.7,8.2-0.5,8.5-0.5c0.6-0.2,9.6-3.3,19.6-2.4c6.8,0.6,13.5,2.6,20,6h0.1c1,0.5,3.6,2.2,5.7,3.4
		c0.4,0.2,0.8,0.5,1.2,0.7c0.4,0.3,0.8,0.5,1.1,0.7c1.1,0.7,1.9,1.2,2,1.3c0.4,0.1,7.7,2.7,10.4,3.7l0.2,0.1
		c2.8,1.1,8.7,3.4,11.4,5.3c2.4,1.7,3.5,4.1,3.8,5.1l0,0c0,0.1,0.1,0.2,0.2,0.3c0.2,0.2,0.5,0.6,0.6,1c0,0.6-0.2,2.3-0.4,3.3
		c-0.2,0.9-0.6,1.8-0.7,2c0.1,0.3,0.6,1.4,0.5,2.2v0.1c-0.1,0.9-0.5,3.2-8.2,5.9c-7.1,2.5-12.8,3.1-16.6,3.1
		C72.7,72.2,71.9,72.2,71.2,72.1z M22.9,30.6L22.9,30.6L22.9,30.6c-0.1,0-1.9-0.3-8.6,0.5C7.4,32,4.3,35.3,3.7,36
		c-0.5,0.6-0.6,1.2-0.6,1.7C3.1,38,3,38.2,3,38.4c-0.1,0.2-0.3,0.6-0.6,1.1c-0.4,0.8-0.9,1.8-1,2.3c-0.2,0.8,1.2,6.3,1.8,7.4
		c0.5,0.9,3,2.7,3.7,3.2c-0.1-0.2-0.7-1.6-0.4-4.1c0.1-1.1,1-2.6,2.4-3.2c1-0.4,2.5-0.7,4.6,0.7c3.9,2.6,4.8,8.5,5,9.6
		c0.1,1.1,0.5,2.1,0.7,2.1c0.1,0.1,0.3,0.1,0.6,0.1c0.3,0.1,0.9,0.2,1.9,0.4c1.9,0.4,26.8,7.5,28.2,8c0.3,0.1,0.8,0.2,1.3,0.4
		c1.5,0.5,3.9,1.2,4.5,1.3c0,0,0,0,0-0.1c0,0-1.9-4.5,0.5-7.9c1-1.5,2.8-2.4,4.8-2.4l0,0c2.6,0,5,1.4,6.7,3.9
		c2.1,3.1,2.4,5.5,2.6,7.4c0.1,1,0.2,1.9,0.6,2.6c0.1,0.1,0.2,0.3,0.3,0.5c0.1,0,0.1,0,0.2,0c3.3,0.2,10,0.2,18.8-3
		c7.6-2.7,7.9-4.9,8-5.7v-0.1c0.1-0.7-0.5-2-0.5-2v-0.1v-0.1c0,0,0.4-1.1,0.7-2c0.3-1,0.4-2.6,0.4-3.2c0-0.3-0.3-0.6-0.5-0.8
		c-0.1-0.1-0.2-0.3-0.3-0.4l0,0c-0.3-0.9-1.4-3.3-3.7-5c-2.7-1.9-8.5-4.2-11.3-5.3l-0.2-0.1c-2.7-1-10.3-3.7-10.4-3.7l0,0
		c0,0-0.8-0.5-2-1.3c-0.4-0.2-0.7-0.5-1.1-0.7s-0.8-0.5-1.2-0.7c-2.9-1.8-4.9-3-5.7-3.4h-0.1c-6.4-3.4-13.1-5.4-19.9-6
		C41.2,28,40,28,38.9,28C30.2,28,23,30.6,22.9,30.6z"/>
	<path id="shadow_4_" class="st12" d="M56.4,54.9c0,0-29.8-9.3-30.1-9.5S9.2,40.1,9.2,40.1s18.4,6.5,21.1,7.3s19,6,19,6L56.4,54.9z"
		/>
	<path id="shadow_3_" class="st12" d="M80.7,43.2c0,0,6.2,3,9.1,5.8c2.6,2.6,3.4,5.2,3.4,5.2s-1.6-3.4-4.7-5.8c-2.3-1.8-9.9-6-9.9-6
		L80.7,43.2z"/>
	<path id="shadow_2_" class="st12" d="M87.5,56c-0.8-0.3-12.1-2.8-19.3-4.5c-8.2-2-14.6-3.9-14.6-3.9l-1.5-0.1c0,0,7,2.5,17,4.7
		C79,54.4,87.5,56,87.5,56z"/>
	<path d="M48.7,48.3c-0.6-0.2-29.9-8.9-33.2-9.8h-0.2l-0.1-0.1v-0.1c0-0.1-0.5-2,0.2-2.7c0.5-0.5,3.7-2,9.1-2c1.5,0,3,0.1,4.5,0.3
		c7,0.9,11.2,3,14.6,6.9c2.8,3.2,5.2,7.1,5.3,7.2l0.3,0.5l-0.1,0.1L48.7,48.3z M48.8,48.1c0,0-2.5-3.9-5.2-7.1
		c-3.4-4-7.6-6-14.5-6.9c-1.5-0.2-3.1-0.3-4.5-0.3c-5.4,0-8.5,1.4-9,1.9c-0.7,0.7-0.2,2.5-0.2,2.6l0,0h0.1
		C18.8,39.3,48.1,48,48.8,48.1l0.1,0.2L48.8,48.1L48.8,48.1z"/>
	<path d="M10.5,34.9c-0.1-0.1,0.1-0.2,0.2-0.3c0.2-0.1,0.6-0.3,0.6-0.4c0,0,3.5-1.7,12.1-4l0.1,0.1c0,0-0.5,0.2-0.6,0.3
		c-0.4,0.2-1.4,0.6-2.1,1c-1,0.6-1.6,1-1.6,1l0,0l0,0c-4.7,0.8-8,2.3-8.1,2.3l0,0c-0.1,0-0.2,0-0.3,0C10.6,35,10.5,35,10.5,34.9z
		 M19.1,32.6c0.1-0.1,0.6-0.4,1.6-1c0.5-0.3,1.3-0.7,1.8-0.9c-8,2.2-11.1,3.7-11.2,3.8c0,0-0.4,0.2-0.6,0.3
		c-0.1,0.1-0.1,0.1-0.1,0.1s0.2,0,0.4,0C11.2,34.8,14.5,33.4,19.1,32.6z"/>
	<path d="M51.4,47.3c-1.1-0.4-2.2-2-3.3-3.6c-0.5-0.7-0.9-1.3-1.4-1.8c-1.4-1.6-3.7-4.2-3.7-4.3l0,0l0,0c0,0,0-0.1,0.1-0.2
		c0.1-0.1,8-2.7,9.4-3.1c2.5-0.8,5.8-1.6,6.2-1.7c0.4-0.1,0.7-0.1,0.7-0.1v0.1v-0.1c1.4,0.6,2.5,1.2,3,1.5h0.1c1.9,1,9.9,6.1,10,6.2
		c0,0,0.6,0.4,0.6,0.8c0.1,0.5-1.5,2.3-9.3,4.6c-5.4,1.5-8.4,2.1-10.2,2.1C52.6,47.7,51.9,47.5,51.4,47.3z M58.6,32.7
		c-0.4,0.1-3.7,0.9-6.1,1.7c-2.6,0.8-8.9,2.9-9.3,3c0,0,0,0.1-0.1,0.1c0.3,0.3,2.4,2.7,3.7,4.2c0.4,0.5,0.9,1.2,1.4,1.8
		c1.1,1.5,2.2,3.1,3.3,3.5c1.6,0.6,4.1,0.6,12.2-1.7c9-2.6,9.2-4.4,9.2-4.4c0-0.3-0.4-0.6-0.5-0.7c-0.1-0.1-8-5.1-9.9-6.1h-0.1
		c-0.6-0.3-1.6-0.9-3-1.5C59.2,32.6,58.9,32.7,58.6,32.7z"/>
	<path d="M41.6,35.3c-0.1,0-0.2-0.1-0.3-0.1c-0.9-0.5-3.2-1.7-6.1-2.5l0,0l0,0v-0.1c0,0,3.8-1.3,6.9-2.2c2-0.6,4.4-1,4.8-1.1
		c0.1,0,0.2,0,0.2,0c2.6,0.5,5.2,1.2,7.7,2.1c0,0,0,0,0,0.1s0,0.1,0,0.1l0,0l0,0c-1.1,0.3-3.8,1-5.7,1.6c-1.5,0.5-4.8,1.5-7,2.3
		c-0.1,0-0.1,0-0.2,0C41.9,35.3,41.7,35.3,41.6,35.3z M47.2,29.4c-0.1,0-0.1,0-0.2,0c-0.5,0.1-2.8,0.5-4.8,1.1
		c-2.7,0.7-5.8,1.8-6.7,2.1c2.9,0.7,5,1.9,5.9,2.4c0.1,0.1,0.2,0.1,0.3,0.1c0.1,0.1,0.3,0.1,0.4,0c2.3-0.8,5.5-1.8,7.1-2.3
		c1.9-0.6,4.4-1.2,5.6-1.5C52.3,30.5,49.8,29.8,47.2,29.4z"/>
	<path class="st0" d="M46.5,46.9c0.7-2.1-2.3-2.3-2.3-2.3S43,44.7,42,45.2c-1.1,0.5-1.9,1.6-1.8,2.3c0.1,0.7,0.4,0.8,0.6,0.8
		c0.2,0,5.1-0.2,5.1-0.2S46.1,48,46.5,46.9z"/>
	<path d="M40.7,48.3c-0.1,0-0.5-0.1-0.6-0.9C40,46.7,40.8,45.5,42,45c1-0.4,2.1-0.6,2.2-0.6l0,0l0,0c0.1,0,1.7,0.1,2.3,1.1
		c0.3,0.4,0.3,0.9,0.1,1.4c-0.4,1.1-0.6,1.2-0.7,1.2c-0.5,0-4.3,0.2-5.1,0.2C40.8,48.3,40.7,48.3,40.7,48.3z M46.4,46.8
		c0.2-0.5,0.1-0.9-0.1-1.3c-0.5-0.8-2-1-2.2-1c-0.1,0-1.2,0.2-2.1,0.6c-1.1,0.4-1.9,1.6-1.8,2.2c0.1,0.7,0.4,0.7,0.5,0.8
		c0.2,0,3.1-0.1,5.1-0.2C45.9,48,46.1,47.8,46.4,46.8z"/>
	<path d="M97.4,55.9c-0.1-0.6-0.4-1.4-0.7-2.1c-0.1-0.3-0.2-0.6-0.3-0.9c-0.4-1.2-1.5-3-1.5-3l-0.3-0.4l0.5,0.5
		c0.5,0.4,0.9,0.9,1.3,1.3l0.2,0.3c0,0,0.5,0.6,0.8,1.3c0.2,0.4,0.4,0.8,0.5,1.1C98.1,54.7,97.5,55.9,97.4,55.9v0.2V55.9z
		 M96.6,52.9c0.1,0.3,0.2,0.6,0.3,0.9c0.2,0.7,0.5,1.3,0.6,1.9c0.2-0.4,0.5-1.2,0.3-1.6c-0.1-0.3-0.3-0.7-0.5-1.1
		c-0.3-0.6-0.8-1.3-0.8-1.3l-0.2-0.3c-0.3-0.4-0.7-0.8-1-1.1C95.7,50.9,96.3,52,96.6,52.9z"/>
	<path d="M30.5,58.6h0.1l-0.2-0.8c0-0.1,0-0.3,0.1-0.5c0.1-0.3,0.1-0.6,0.1-1c0-0.3-0.1-1.3-0.2-2.5c-0.1-1.7-0.3-3.9-0.2-4.2
		c0.1-0.5,0.2-1.7,0.1-2.1c0-0.2-0.1-0.4-0.2-0.6C30,46.7,30,46.6,30,46.5c0-0.2,0.4-1.9,0.6-2.9l0.1-0.6h-0.1l-0.1,0.6
		c-0.1,0.3-0.7,2.7-0.6,2.9c0,0.1,0.1,0.3,0.1,0.5c0.1,0.2,0.1,0.4,0.2,0.6c0,0.3,0,1.5-0.1,2c0,0.3,0.1,2.4,0.2,4.3
		c0.1,1.2,0.2,2.2,0.2,2.5c0,0.4-0.1,0.7-0.1,1c0,0.2-0.1,0.4-0.1,0.5l0,0L30.5,58.6z"/>
	<path d="M55.1,65.7L55.1,65.7c0-0.1-0.3-0.1-0.5-0.1c-0.3,0-17.5-5.1-23.5-6.9c-6.7-2-10.2-3.2-10.6-3.5C20,54.9,19.6,54,19.6,54
		s-1.5-3.2-1.9-4.3c-0.5-1-1.9-3.9-2-4.1l-0.2-2.1l-0.3-1c0,0-0.1-0.8-0.2-1.3c0-0.5,0.4-2.3,0.4-2.3l0.1-0.4h-0.1l-0.1,0.4
		c0,0.1-0.4,1.9-0.4,2.4s0.2,1.3,0.2,1.3l0.3,1l0.2,2.1c0,0,1.5,3,2,4.1s1.9,4.2,1.9,4.3c0,0,0.4,1,0.9,1.3s4.8,1.7,10.6,3.5
		c5.7,1.7,23.2,6.9,23.5,6.9C54.8,65.7,55.1,65.7,55.1,65.7z"/>
	<path d="M30.8,42.9c0,0,0-2.4,0.3-4.2c0.3-1.7,0.9-4.1,1-4.2H32c0,0-0.7,2.4-1,4.2s-0.3,4.2-0.3,4.2H30.8z"/>
	<path d="M19.1,32.6c3.8-0.7,7.5-0.8,10.8-0.3c9.6,1.4,13.2,5.2,13.2,5.2L43,37.6c0,0-3.6-3.8-13.1-5.2C26.5,31.9,22.9,32,19.1,32.6
		c-4.7,0.9-8,2.4-8.1,2.4l0-0.1C11,34.9,14.4,33.4,19.1,32.6z"/>
	<line class="st13" x1="46" y1="43.9" x2="45.3" y2="44.7"/>
	<rect x="45" y="44.2" transform="matrix(0.6644 -0.7474 0.7474 0.6644 -17.7745 48.9312)" width="1.1" height="0.1"/>
	<path d="M76.9,70.1c-0.1-0.2-0.1-0.5,0-0.7v-0.1c0.1-0.2,0.2-0.6,0.6-0.8c0.3-0.2,0.5-0.2,0.8-0.3h0.1h0.1
		c1.9-0.1,5.8-0.6,11.6-2.5c4.2-1.4,6.2-2.9,7.1-4l0,0c0.4-0.5,0.5-0.8,0.5-0.8l0.1,0.1c0,0-0.1,0.3-0.5,0.8c0,0.4,0,0.7,0,0.9
		c0,0-0.5,2.5-7,5.1c-4.9,1.9-10.2,2.5-12.4,2.5C77.3,70.2,76.9,70.1,76.9,70.1z M90,65.8c-5.8,1.9-9.8,2.4-11.6,2.5
		c-0.1,0-0.1,0-0.1,0h-0.1c-0.2,0-0.4,0-0.7,0.2c-0.3,0.2-0.4,0.5-0.5,0.7v0.1c-0.1,0.2-0.1,0.5,0,0.6c0.3,0.2,7.1,0,13.2-2.4
		c6.3-2.5,6.9-4.9,6.9-5s0-0.3,0-0.7C96.1,63,94.1,64.5,90,65.8z"/>
	<path d="M89.3,65.4c0,0-0.1-0.1-0.1-0.2l0.5-1.7c0-0.1,0.1-0.2,0.2-0.2c0.3-0.1,0.5-0.2,0.8-0.3c2.3-0.7,4.2-1.6,5.6-2.6
		c0,0,0.1,0,0.2,0l0.1,0.1L96,62.3c0,0.1-0.1,0.1-0.1,0.2c-1.4,1-3.3,1.9-5.7,2.7c-0.3,0.1-0.5,0.2-0.7,0.2c0,0,0,0-0.1,0
		C89.3,65.5,89.3,65.5,89.3,65.4z M90.7,63.2c-0.3,0.1-0.6,0.2-0.8,0.3c0,0-0.1,0-0.1,0.1l-0.5,1.7l0,0l0,0c0.2-0.1,0.5-0.2,0.7-0.2
		c2.4-0.8,4.3-1.7,5.6-2.7l0.1-0.1l0.5-1.7C94.9,61.6,93,62.5,90.7,63.2z"/>
	<path d="M88.3,62.6c-0.6-0.3-1.1-1.1-1.3-1.8l0,0c-0.1-0.4-0.1-0.7,0-0.9c0.3-0.5,1.2-0.7,2.3-0.8c0.5-0.1,1.1-0.2,1.7-0.3
		c1.5-0.4,2-0.6,3.4-1.4c0.4-0.2,0.8-0.5,1.2-0.8c0.6-0.5,1.1-0.8,1.4-0.7c0.1,0,0.2,0.1,0.2,0.3c0.2,0.8-0.2,2.5-0.8,3.3l0,0
		c-0.3,0.5-0.9,1.2-3,2.1c-1.4,0.6-2.9,1.1-4.1,1.1C89,62.8,88.6,62.7,88.3,62.6z M95.8,56.7c-0.4,0.3-0.8,0.6-1.2,0.8
		c-1.4,0.8-2,1-3.5,1.4c-0.6,0.2-1.2,0.3-1.8,0.3c-1.1,0.2-1.9,0.3-2.2,0.8c-0.1,0.2-0.1,0.4,0,0.8l0,0c0.2,0.8,0.7,1.5,1.2,1.7
		c1.3,0.6,3.3-0.1,5.1-0.9c2.1-0.9,2.6-1.6,2.9-2.1l0,0c0.6-0.8,1-2.4,0.8-3.2c0-0.1-0.1-0.2-0.1-0.2s0,0-0.1,0
		C96.8,56,96.3,56.3,95.8,56.7z"/>
	<path d="M74.4,61.4c-1.2-0.9-1.8-1.7-1.8-2.2c0-0.2,0-0.3,0.1-0.4c0.2-0.2,1.3-0.6,2.5-0.6c1,0,5.6,0.7,6.9,1.2
		c1.5,0.5,2.7,2.3,2.7,2.5l0,0c0,0.1,0,0.1,0,0.2c-0.3,0.5-3.5,0.6-4.1,0.6c-0.3,0-0.7,0-1.2,0C77.9,62.8,75.8,62.6,74.4,61.4z
		 M84.8,62c-0.1-0.3-1.3-1.9-2.6-2.4c-1.4-0.5-5.9-1.2-6.9-1.2c-1.2,0-2.2,0.3-2.4,0.5c-0.1,0.1-0.1,0.2-0.1,0.3
		c0,0.3,0.3,1,1.8,2.1c1.8,1.4,4.6,1.3,6.3,1.3C82.9,62.5,84.6,62.3,84.8,62L84.8,62L84.8,62z"/>
	<path d="M78,64.7c2.9,0,9.5-1,11.3-1.5c1.9-0.5,4.9-1.8,6.2-2.6c1.2-0.7,2.2-1.9,2.7-3.1c1-2.1,0-2.8-0.1-2.8L98,54.8
		c0,0,0.2,0.2,0.4,0.6c0.1,0.4,0.1,1.1-0.3,2.1c-0.6,1.2-1.5,2.3-2.7,3c-1.3,0.8-4.3,2.1-6.2,2.6c-1.9,0.5-9.1,1.6-11.7,1.5
		c-1.5-0.1-2.9-0.7-4.1-1.2c-0.8-0.4-1.6-0.7-2.3-0.8c-1.4-0.2-2.5-0.2-3-0.2c-0.1,0-0.2,0-0.2,0v0.1c0,0,0.1,0,0.2,0
		c0.5,0,1.6-0.1,3,0.1c0.7,0.1,1.4,0.5,2.2,0.8c1.2,0.6,2.6,1.2,4.1,1.3C77.7,64.7,77.9,64.7,78,64.7z"/>
	<path d="M74.1,58.4L74.1,58.4c-1-1-4.7-2.9-7.5-3.9c-1-0.4-2.3-0.8-3.7-1.2c-2.5-0.8-5.3-1.8-7.4-2.6c-1.6-0.7-2.3-1.5-2.7-2.1
		s-0.4-1.1-0.4-1.1h-0.1c0,0.1,0,2,3.2,3.3c2,0.9,4.9,1.8,7.4,2.6c1.4,0.5,2.7,0.9,3.7,1.2C69.4,55.6,73.1,57.5,74.1,58.4z"/>
	<path d="M68,37.6L68,37.6c0-0.1-0.1-0.4-0.1-0.7c0-0.1,0.2-0.6,0.5-0.7c0.2-0.1,0.6-0.1,1,0.1c0.3,0.1,0.7,0.5,0.9,1.2
		c0.3,0.9,0.3,1.5,0.3,1.5v0.3L68,37.6z M68.5,36.4c-0.1,0-0.2,0.3-0.3,0.5c0,0.2,0,0.4,0,0.5l2,1.2c0-0.2-0.1-0.6-0.3-1.1
		c-0.1-0.5-0.4-0.8-0.7-1c-0.2-0.1-0.4-0.1-0.5-0.1C68.6,36.4,68.5,36.4,68.5,36.4z"/>
	<path d="M2,39.9L2,39.9l0.2-0.5c0.2-0.5,0.5-0.9,0.5-1.1c0.1-0.2,0.1-0.4,0.1-0.7c0.1-0.5,0.1-1,0.5-1.6l0,0h0.2l1.2,0.5l0,0
		c0,0.1,0.2,1.5-0.1,2.2c-0.3,0.7-1.5,1.4-1.9,1.4C2.5,40.2,2.2,40,2,39.9z M3.5,36.2L3.5,36.2C3.1,36.7,3,37.3,3,37.7
		c0,0.3-0.1,0.5-0.1,0.7c-0.1,0.2-0.3,0.6-0.6,1.1l-0.2,0.3C2.3,39.9,2.6,40,2.7,40c0.3,0,1.5-0.6,1.8-1.3c0.3-0.6,0.2-1.8,0.1-2.1
		L3.5,36.2z"/>
</g>
</svg>
